<mxfile host="app.diagrams.net" modified="2020-09-29T16:51:00.569Z" agent="5.0 (Windows NT 10.0; Win64; x64) AppleWebKit/537.36 (KHTML, like Gecko) Chrome/85.0.4183.121 Safari/537.36" etag="c-9JxzWae9w3GhSlpwKu" version="13.7.5" type="github">
  <diagram id="sYP0i_cQxg5bneNUWzJt" name="Page-1">
    <mxGraphModel dx="1673" dy="913" grid="1" gridSize="10" guides="1" tooltips="1" connect="1" arrows="1" fold="1" page="1" pageScale="1" pageWidth="850" pageHeight="1100" math="0" shadow="0">
      <root>
        <mxCell id="0" />
        <mxCell id="1" parent="0" />
        <mxCell id="FlDBiTEiYfADoYEPbW1w-3" value="" style="shape=image;verticalLabelPosition=bottom;labelBackgroundColor=#ffffff;verticalAlign=top;aspect=fixed;imageAspect=0;image=data:image/jpeg,/9j/4AAQSkZJRgABAQAAAQABAAD/2wBDAAgGBgcGBQgHBwcJCQgKDBQNDAsLDBkSEw8UHRofHh0aHBwgJC4nICIsIxwcKDcpLDAxNDQ0Hyc5PTgyPC4zNDL/2wBDAQkJCQwLDBgNDRgyIRwhMjIyMjIyMjIyMjIyMjIyMjIyMjIyMjIyMjIyMjIyMjIyMjIyMjIyMjIyMjIyMjIyMjL/wAARCAPYAigDASIAAhEBAxEB/8QAHwAAAQUBAQEBAQEAAAAAAAAAAAECAwQFBgcICQoL/8QAtRAAAgEDAwIEAwUFBAQAAAF9AQIDAAQRBRIhMUEGE1FhByJxFDKBkaEII0KxwRVS0fAkM2JyggkKFhcYGRolJicoKSo0NTY3ODk6Q0RFRkdISUpTVFVWV1hZWmNkZWZnaGlqc3R1dnd4eXqDhIWGh4iJipKTlJWWl5iZmqKjpKWmp6ipqrKztLW2t7i5usLDxMXGx8jJytLT1NXW19jZ2uHi4+Tl5ufo6erx8vP09fb3+Pn6/8QAHwEAAwEBAQEBAQEBAQAAAAAAAAECAwQFBgcICQoL/8QAtREAAgECBAQDBAcFBAQAAQJ3AAECAxEEBSExBhJBUQdhcRMiMoEIFEKRobHBCSMzUvAVYnLRChYkNOEl8RcYGRomJygpKjU2Nzg5OkNERUZHSElKU1RVVldYWVpjZGVmZ2hpanN0dXZ3eHl6goOEhYaHiImKkpOUlZaXmJmaoqOkpaanqKmqsrO0tba3uLm6wsPExcbHyMnK0tPU1dbX2Nna4uPk5ebn6Onq8vP09fb3+Pn6/9oADAMBAAIRAxEAPwDwMzy5P7xvzo8+X/no350w9TXSeDfC6+JtRmS4nNtZW0RmuJsfdQEZx78immBz3ny/89G/Ojz5f+ejfnXp+leCvCPiiK6bRbrUw1kvmTLNGvzIOu3BqknhPwr4gsr9fDd7fC/s4zKYrxQolVfvbcE80XCx56Jpf+ejfnV02eoDS11LbIbVpDEJATjcBnFUGUoxUjBBwR6V23gl11fS9U8MzOQbmIzWpJ4V1+Y/mBii7FY4zz5f+ej/APfVW57S/trG3vJRKkFxnymJPzY7j8qSy02e81mDTkQmaSURhT3JPSuh+IOoRPqVto9mAtnpkIiQD+8QC+f+BZpXGcp583/PR/zqwkN9IoZVlIIyMGq0AzcRg8gsP519q+EdK09/B+js1jbFjZxEkxLz8g9qLgfGht9QHVJfzqu006khpHBHBGTX3W2k6dsb/QLXp/zxX/Cvjj4jRRw+PdXjiRUQXBAVRgCi4HNefL/z0f8AOr+m6XrOryOmnWl3dMilmEKlsD14qz4QttHu/EltFrtx9n08nMj44/HHQV9NXUd3oeiWP/CAaVp99ZSYDuHO/nnOe44/WndgfKEjXETlJGkRh1DEgimefL/z0f8AOvqL4g+BNL1vwlNqd7aW9rq0EW92tTwD6e/5V8s0XAf58uf9a/8A31S+fL/z1f8AOtfwjHYS+J7NNTtftNkz4ljBIJH4V6XqHgTw/pWleJNQMMdy6BHsIvMYBYmYKH4685H4UXA8c8+b/nq//fVKJ5f+er/99U66tpLSby5Vw2M/hS2Vu13dxW6As8jBQF6mi4FnTrDVdWnEFhBc3Mn92JS2Pyq9qfhjxHo8JmvtPvIYR1kZWC/nX0nN8PNLs/h1/ZFldLZXiReYbxHw+4DJJI5xjr7Vi/CfwnD9mvL7V9Zt9YSTMUe2dnROoYYbA9KLiPmzzpv+er/nR503/PV/zrsfij4Wi8K+Mbi3tubSb97CQc8Hr+pp3ws8LReKfGMFvdj/AESH95Mc+nT9cUrgY2meGfEmrw+dY6fezQ4/1ioxX86pajp+raTOYdQt7q2k/uyqVP619CfFjwnF5Nle6TrlvosYPlyBp3jRugXAXPvW3/wr3TLz4c/2RdXEd7eNH5i3krbnLkZByecYNFxnyn50v/PR/wAzT4luZ8+V5j464NJcwPbXMkDghkYqc17r+zjaW10mvfaLeKXaYsb0DY+960XA8P8Ast9/zzlqOVLmHHmiVM9N2RX3WdK07H/Hha/9+V/wrxT9oeytLbRdNeC2hiYysCUjCk8e1Aj5782T/no350qvKzBVZiScAZqMV7x8LvCmmWekWt/fQwm+vVZ45JeREinB46EkgdqBnhr/AGiMAvvXPTORTPNk/vt+dfXOs+HNA1zTpbaWxTynyit5YQBv72RzXyx4l0eTQdfu9Of/AJZSEKf7y54NO4GYZJD1dvzpN7/3j+dNNFIBwdx0Yj8aUSyf89G/OmUU7gSedL/z0b86PNl/56N+dR0UXAniu7iFw8czqw6EGrP9t6n/AM/9x/32az6KlxT3FZM0P7b1P/n+n/77NH9uan/z/T/99ms+ilyR7C5UaH9uan/z/T/99mq8t7czOXknkZj1Jaq9FNRS2Q7Il8+b/nq/50nnzf8APV/zqOiquOxJ58v/AD1f86Xz5f8Anq/51FRRdhYk+0S/89X/ADo+0Tf89X/Oo6KLsLEnnzf89X/76qWIXk3+q81semal0Y2Q1i1/tEObMyATeWMtt9q+y/C+g+GIdEtn0aytXs3Tcj7d5P1J5ouwPjKSG/iXdIkwHrzUHny/89W/Ovum70XSri3dJ9PtTGRzmIf4V8j/ABRtvDtp4vng8OBhAnEvOU399p9KLsDjftE3/PVvzNL582P9Y/8A30av6RYxah5kTL+8X5g2e3pXU2SwMogeBFlTggii7Cxw32ib/no/5ml+0S/89X/76NWdXRY9SlVVAGegp+hRpLq8COu5SeRRdhYjEGoGAzBJzHjO7nFVzPN/z0f8zXoX9pbtWOlQWiGEcOSeMdCK5DxLCkGuzxxoFUYwB9KLsLGX58v/AD0f86PtE3/PR/zrpvBOg6LruomDV9Se0BKrGsa5aQkgY/Wkm8P6Zb+OL/R7u/NrY2s0iGdhk4U4/Oi7CxzX2ib/AJ6P+dH2ib/no/512XjfwdZaDrGnWelXEtxHeQiRXlGCc9KdY+GdC0uS+j8SXkv2uBxHHaWoy8h4ye3HP6UXYWOL8+X/AJ6P+dHny/8APR/zr0xPh3pM/jay06G7uBY3FkL3DAeYAV3bMZ684qh4v8I6RY+F4te0prqNWujbtDcqASRnkcn+7RdgcGs8u4fvG/OimIPnX60U0xCHrXVeCPEttoN7dwajG8mn38Bt5wh5UEg5H5VzkllcxRpJJBIqOMqxU4I9qYIJT0jb8qkZ6vpGt+EfB5m/szXNQnjvgY5kgAUop9cr+oqpHrHhLwlbX9zot7PqGoXcDwqzKVEQcYJOQMn6V5kYJlODG2fpS+RN/wA83/75oAbK5klZ26k5NW9I1B9L1a2vIyQYpATjuM8iq/2ef/nk/wD3yaX7LPnHlNn6UAerS6ZBper6j4zSPNk1uJ7c9knlBKj/AICa8ouJ5Lq4knlbdJI5dj6k1sy6zrl34fh0Ji5sIXLqgXHPuayGs7hBloWAoEMg4uIz6MP519t+EJ4v+EN0X96n/HlF1I/uiviLY452mtaLxT4ghiWKLV71I0AVVWVgAB2oA+4Gni2H96nT+9Xxl8SWDfEDWCpBH2hsEHNZ/wDwlfiRuP7Zvznt5zVk3Ek887yzszyucszckmgZPpVtb3mowwXV2tpAzAPMwJCjPPAr3C08B+K9GtEuPAniQ3dpchd6LIPlOOSc/wAq8DwfSt7Q/F2veHlkXTdRnhjcYKK3y59cetAHt96bP4f+CNVtNe11L3WNRyxVTk7iBxjt0NfOVWb29utQunubyd5pm6u5JJ/GoEjeQgIhY+woAtaXf3Gm6hHc2r7JQcBh1Fd3Fd3C2kkBncxzRLG6G5TBUHcB+fNeem2nBwYZP++TSi1uCeIZOf8AZoAua8ipqRVQQAoxlg36iqtjctZ3sNwpIKODx6ZpfsN3/wA8H/Kk+w3X/PB/yoA9osNDvPEPj3TdZ0C4P9l6ghaUM+RD8pDIR16d/etL4j/Dm5sf7JtPD0a22lNM3nSK20xliOW9uuPxrxzQ9a8ReHZ/N0ue5gJPKqTtb6jvWtrXjrxlr9uYL26n8s9UjyoP1HekwK3j7ULS61qOysJDJaWMYhRic7jxuP8A31ml+H9/Z2+sy2WoMEtb6Mwu5ONp52n8GxXMtaXIyWhf8qFt51O4QtwM5xQB798PPh1c366paeIkW60yOdRA7tkuVJyVx0B4z+FZOoaPe+G/HWp6zr9yzafp6hrcK+0THaAiBT1+UnkelcDpHxF8WaHEsFlqEgi6LG2WUfTPSs7Xda8ReI7gTanPczkcKrE4X6CmLUxbq4NzdyzsSS7E5PpXvX7NrLGmvbmVcmLGT1+9Xg/2K6zjyHz9KvWM2u6SXaxkvLUv97ySVz+VJsqzPuUyJ/eH514h+0bKh0TS1DAkyk4z7V4uPEvi89NW1T/v69UL++1vVtov57y62fd80s2PzouHKzLXGRnp3r6Z8B+INE1fQrG2lmSGaNQUR5FXJAxgZ9eTXzWbW4H/ACxkH/ATT0hu4mDpHIpByCAadxNH194nvdLWy+13VxHAIFJiUTL8xIx0Br5a8b6xFrfiN7qFGVVjSL5iCWKjrWVcT6jcnM7XEh6fNk1WNtOP+WT/APfJoAioqUW8xz+6fj/ZNH2eX/nm35UARUvFPMMo/wCWbflQIZD/AAN+VAEdFSeRKf8Alm35UeRL/wA8n/75NAEdFSeRL/zzf8qVbeV22pG7H0AoAioq4dKvh1tJR/wGmtp14DzbS5/3aLgVaKs/2fef8+0n/fNH9n3n/PtJ/wB80AVqKtDTrw/8u0n/AHzR/Zt5/wA+0n5UAVaKtf2bef8APtJ+VH9m3n/PtJ+VMCrRVr+zrz/n2k/Kj+zrz/n2k/75oAqjrXsfwb+Jj6JfpoeqSH7BO2I3/wCebH+leTf2def8+0n/AHzQtjeqwZYJQRyCAeKQH0n8ZPiWmh6d/Y2lXCtqFwMyOhyI0P8AU18yyO0sjSOcsxJJq3cQandSmS4S4lc/xPkmo/7PvP8An2k/75oA0vDLql7JvYLkcZOK6S6jjmxIkqLMvIbd19q4n7HeLyIJQR3Apfs9+f4J/wBaAH6sJPt7mQYJ/Wuh+F9vDdfELS4Z41eJnO5W6Hg1zzWmo3JVWhmcgYAxRbjUtMu1mt/tFtcR8h1yrD8aAPqc/C/Sr7xo+rz2McVnEuI4EBHmP3Lfp6V4L8YLWCy+JWpwW0SxQr5e1FHA+QVk/wDCaeMMca7qv4Tv/jWPfXGoalcvdXz3FxO/3pZcszcY5J+lAFzwpIkXijTpJGCos6FmPAA3Cp/G8sc/jjWpoXV4nvJWVlOQRuPT2rEEEv8Azyk/75NHkTH/AJZv+IoA7/4hz2+q6l4fitrqM4s0RnB4Q4HWpvDfhwWupXjWPiK3h1yykwjs42SIcAkMeO571555E54MbfjSNBKOSjEn2oA9rk1PQ/8AhZNlPcXsLXq6eEe6zmP7SF4P03VlfES9eXwZBb65qNte62LstEYDuKRHdkEg464ryYxSDkow/Cn+TLtz5bfXFADI/wDWL9RRT443Ei5Rhz6UVSEz1G5ub7UfDGnLPArWtvCqI3lAY4HcDmsGPCTDKJjOPuivavDcMerfBw23lr5kdsCMAZBC5rxaRSHPHIOKdiLlq/t44njdY0AYf3RU+nxxO5DxIeP7opdSQ/ZLeQ8ADFM00/6So/vcUrBcuyxxq+BFGBj+4KjMUbsMxpn/AHRVm5XDioQcGiwrs6DQ7W2kt33wxlgf7tZXii3iTTZisagqeMLWj4dc+bKM03xBCXsrgDnINFgueZlR/dH5Uwqp6qPyqUjFMPWpZaGoqq4+UflTbpFSTKqAD7U48c+lLdjKoaBlQqPQflR0XbgYznpTsUmKBjcDH3V/EVo6FtOrQbkUrnGNoqhirWmN5ep257bxSYdTvL6KNbnAjjxjgbBVzRooWnOYYz/wAVBqWPPQjutTaM2LmuVyfMdHKuU6MW1v3gi/74FBtbfH+oi/74FSL0/CkJrdGBEba3H/ACwi/wC+BTPJgXOIIh/wAVMTUbGhgZOsRxrCu2KMZPOEFYTxIbO5GxR8jdB7Vv6z/wAew+tYKndFOh7xN/KseZ3sbqKtc41Ao2naO3avVrG3gaxgJhjJKA/cFeUgHdivWdLYPpdsev7sV0LYwe5ctbeBbhQIIsE8/IK6s2dt9m3fZoc4/wCeYrl4Ti4i/wB6uqBJtiPauGvJp6HZSimjmBbW7R6gDbxfKvy/IOKz9BtbeSW4DwRMOvKCtM5xfgelUdA4muPXbThJ2FOOpzV2iC6lHlx4yf4BVNlT/nnH/wB8CtC8H+ky/wC8apEc1103dHJU0ZAYY2OfKTP+6KY8SAg+WnH+yKtgUj4rUhMr6ZGklxdb0Q4iP8IrKRFIOVXrjpW1pI/f3/tEax4/un61nc0toVplUNwo/KmBAT90flU0wy4qKbcifL1NVcSQ+dIYlUrgk9eKgE6j+FfyFQsXP3qb0NJsqxc85G/gUfhWx4Zura0161mmWPyg3zbgMfrXO0ByjZzUO5SR9HWl3pmoqDDHbv8A9s1qG8tbUT7Rbw/9+x/hXjPhrxFLpmqRPJO/2cnDgntXr8V3BfItzbSh42HBFTGLTuypWa0D7Ja/8+0P/fsU37Lbf8+0P/fsVMTim7q2RgItpa/8+0P/AH7FP+yWuP8Aj2h/79ikBpwamMT7Jaf8+sP/AH7FH2S0/wCfWH/vgU7dRupiG/ZLT/n1g/GMf4UfZLT/AJ9Lf/v0v+FOyfWjNAxv2S0/59YP+/YpptbXtbQ/9+x/hUhNMJoAja2tsf8AHtD/AN+x/hUD29v/AM+8P/fsVZZuKgc0gKzW9v8A8+8P/fsf4VC8EA6W8I/7Zr/hVhuaiYGkB0PgfT7aXUp5HtoWAj2gmMcc1578QoRdeM7lYbVPJiURgxxjHH0roz4luvDul3H2eAu0rYZh1UVzR8YEOXOnyEnkk85qkSzAGlysPlten+zTTpc3T7Mv4oK6GTxlvXH2BxVCXxMXP/Hk/wCdGgzKOmPnDW6f98ik/s5h0t0/75FXDrcjHi2NJ/bUo/5djQBWXT3z/wAe6/8AfIqQaVK3S2X/AL5FS/21Ofu2x/lUia9dxn/j0/8AHqAIhoVzJx9lQ+2wVIvhi9b7tiv/AHwKuReK72NgRYqcf7VW08ealGuF0+IHPUnNAHPaj4dvLawmeSzCAKedoorT1nxhqd9p08UlosaMhB20UCZ2vwYulvPDMthLyXh4568V5lqcH2fxBcwBcBJ2AH41v/CjWY9IvLRpnCQlFDsegGKbr9vFc+Lru5tyGgkfcuOlaGTM+/tJbjTCFyCrZqCzsTDPE+7kEGumMI+wzAj+GsfYeKgaLF9bCPIzyDVExfKcVq3aFoy+SSyg1nNlTSuVYvaA2y9IJxmtLVUDRuuOGU5rGspfJukkPQHmty9aOVQytwRQJnlFwuyeRfQ4quRV7UV2X8y/7RqmRQNDMU+5wYUNJSz82wx2NA+pTooopMaCpIG2zo3owNR0qnDA+9IOp6Tf829vJ1JUc/hS6SQLtc96ZK/maLav32j+VN01tt0tckvjOpaxOuB4H0oJpgPAoJrpRz9RSajY0pNRk80DKOrc2341z0JG9/dGH6V0Op82jGudtwDMF/vAisJfEbx+E5EgiQ59a9V0f/kE23+4K8unXFw6+jEV6ZoLF9FtixydtdC2Od7mrEf9Ij/3q6pDmE/SuTj4lQ+hrqImzD1rz8TudtDYyIkDXd6h6FM1l6Lxf3CjpitaL/j/ALv2jrI0jjVJh7UobCk9Tn7/AIu5R/tGqNaF8P8AS5f981RbrXdR2OOruGcVG7UpNRP61szKO5JpHL6if+mRrFi+4frWzpRx/aOP+eJrHi/1VZdTo+yOEYY5qCWM5JPStiCyZ4FcA8jOap3NuysVNJsIozfl6YqGRMHip5V2vj0pF54pjsVcH0owauMgzSSR7UyMUhFQAgivSPh9qjvby2TnO07lP8689Vc11vgVWTWCO22rQmz07dmkBpmaAaohkgNOzUYpc0wH5ozTNxpNxpASbqN1MzSE0wHlqbmm7qTNACs1RtzSk00mgBuBmmsBTjTTQMhkjDgqwyD1FVDptt2iX8q0DTSBQSZ/9n2w/wCWK01tPtP+eK1oEYppANIZnHT7bOREKabGAf8ALMflWjtpjLTAoCzh/uD8qRrOL+6v5Crm2mkUCKYtIh/Av5Uv2aL+4Pyq1tHpRtoAyNYtohpFywQBghwRRVjWlxo91/1zNFNAcFphkt4YNikoUX+VdZYSiSMErzWLYoPsFqOOYl/lW1axhAMHNNMzaNhXDwmPjkYrNeEqxHYVMGKcimrdKxYPxmpY0ABe3TqTgiqUkeeo5rYt41MQOaiuLYM2RUlGMo2mp1kKgfMcelSvanmq2CpwaCWclrKldTlJHU5rOJrptctFkh89fvL1rmT1pjWwCiTmB6KH/wBU1AynRRRQMKRetKelJQB6DaOZPDNu3+eDRZttnQ571Ho53+FkHoTRCcTJ9RXHP4zrj8J2SH5B9KXNRxNuiU+1PrpWxzPcRqjNPY8VCxoArX5zasPaubtz/pcf1rors5gf6VzUZ23SH/arGW5vHY529GLycf7Z/nXonhht2g2+Tk8j9a881AYv7j/fP867/wAJ8eH4v94/zrdbGL3NwdR9a6KBv3Qrnc8j61v25/ciuHEnXR2KMBzql0PWOnppNvZzeakpLsmSDTIeNVuB/sVG1yJ5FjR8sOoqqVnEzqXucle83Ev+8aostaF6MXUw/wBqqJrppnPU3IWFMYDFStUbqMc1qzNDdM4Oo/8AXGsmD/V1q6fwdQI6GLFZMPEdZPc3Wx02iO08JQjiMelV9RjUM+SPaun+HttHLaXRcBsnHNTeKfDSpaGSFSSc8+lZylqdEY+6eZTgbjjk02OAsm/tUM4aGVkORg96dFOdpXsatMycdSWSPIBFPjt2kjIPFXLG289cnpW5BpgeIcDihsVjkvIaN8Ed67fwXaESvdMuB0FY09gRKcflXa+HoPK0xc9fpVImRr5pc0yjNaJGY/NOzUeaMmmBJmk3UzNGaQh+6jdUeaM0DH5o3UzNFMQ4nimE0E00mgBc00mkzRQMCabmgmkzQIDSUUhoASmGn0w0ANNMPWnmmGgBKKKKAKGtf8ga6/65mijWv+QPdf8AXM0U0JnN2ag6TZdB+5X+Qq5BKQMVTsT/AMSi0z2hX+QqRGx3pIlmsG+UVVdP3hOaEc7QaHfLc0hqxPbSt5oUE4q9k96zrR1WfJrUJGBQD0IyM9aq3Nvuyw61cpCAaYjCmh3IyuOCOa4y9tzbXToemeK72/O0nFcfrcZ81ZOxFIZlUdVI9aaTSg0DKp64pKc/3jTaBiGig0negDuPDLmTQJ1J4Q8ClVsSL9ai8HtnTrtPfNPz830NclT4jqh8J2Fq+bdfpU2apaed1sv0q3mt47GEtwY8VExpzGo2piILgZiauYLbZx/vV1EvKGuVuOLgkdjWMtzeGxi6oMajP7tmu38HsW0PBPAc4rjNaAXUGPqoNdb4MfOkuuejmt47GEtzpM81v2xzCv0rn627Vv3A+lcWJR10HoQxcaxN7rWZpn/IXmB9TWip/wCJt9RzWbZnbrkmOmazptjmYt+MXc3+8az24NaWpL/pswHTdWc6nNdtLY46m5HnmobhwiBjUpVu5qvMexH51s9iI7kumIZReInV4uM+tZLI0OUYYZTgj3rY0eyur17pIUZC8eFLD3rak+H99HGks11Hgjc/cis+VmyZueBNsOjh9oBJ/OuqnK3NuY2HXpWFp8I0+yjt4+iqOPpxVj7eU4Nc07pnfBJxOA8VeGXS6aaNfvdQB1qlpng25uUDu2wda9KlmhuYwJACPeliaKMbUwPpTjIzlEx9C8NxWtswnG4scjNap0uBIzsAUgelWg/vTXfgj2p81zJo4e4iJ1MxIM/NXWQx+TAiegpmlWcGy4mkTM+4lSewqYnJxWsL3IqRUUGaM0lFbmAoNOBplLmmIcTSZpuaKQDs0ZptFACk0lIaSgBSabS0hoAKKTNJmgBDRSE0ZNAC9KbmgmkoAWmmlzSGgBpphp5ph60AIaSg0UAUNa/5A91/1zNFGtf8ge6/65mimhHIWU5OmWy46RL/ACrQsLdrycIOMmsnT1JsLb3jX+Vdt4bscP5rdBQiJDpvDtzBAJIxvBHTuKxLhHiY7lI+tej+eMVm6hbW10h8yJcnuOtBKepwccpVs1qw3RKjdVO+smtZPlU7OzVVMzdAak1bOgRw/IpxBArGtbpkyGNTy6gcEA5pkkV+4zt71kXlmbi1YDlgOKvbXncuQaGPl8EGgZwrqVYgjBHGKQdKuapGIr6QDoTmqQNAyCT7xptPk+8aZSGIabnmlNIBzQI63wXITLcxdimcVZkBEzj3rN8HPt1Vl7MhrWu8JeSD/armrbnTSeh0OlyZtgPSr26srR2zbGtEk1pDYynuKTmmMaM8UwmrEMk+6a5a8YLO31rqHOa5W/8A+Pgj3rCa1N4bGZrXOoZ/2BXTeCm/0Gde4krmNbI+1J7xrXS+CeLS4/363jsYy3OrJwta9o+YB9Kxmb5TWpZN+4FceJOmgPUj+1fwrLgyNccf7VaKc6qp9qzof+Q8/wDvVjAuZmamQNQlHvWa6tJIEjBLE4AHWtDWMjUJAByTXVeDPDTg/wBo3K/MR+7Ujp7130VocVTcydK8GT3EfnXrmMEZCdOK6Gy8KaZCo32wdif4zmumGN3Pc4NVHYtfhMnAPFdHKQjOi0+KO/8AKSNUUY6Cl1NjLdwWadD85GO2D/Wta4QJKZiOq4rI0eU6hfXV0V+WMmFfwquUq5mNfWkgliuW+yXCMQuehrDm1NUkZHIkAON0Zz+ddfr+mQXFm8mxQ/Xd615tNZAXvkQqzMef3fGOe+K5qkEdEKstEjYFysq7lmUL7mp43PVZUP0YVHd6fNbaEGkiRiAD0wfxxXNeeygKtmq+rRuST+BNZKnfY0nVUdzuoZiQMtmrcbCQgDqa53T7iyW2jDGdXOCcgflwa6HT0WS4jETF8nPToKuNJ31MHXi1oXlshDCxA+ZgTVIRlkLDr3Fb0o24XOQMjI9Ky0jFvvDHkngV1Rp2OWdZtlMxv/cb8qjJrUluyI1jRdzY5x2qtLallLjr6U3EI1LlPNLmkOVOCKTNZmgtGabmjNAD6SkzRmgBTSZpCeKSgBSaTNIaSgBSaSiigBD0pM0E0maAFzSE0UhoAKSiigANNPWnGmGgBKSlpDQBn61/yB7r/rmaKNZ/5A91/wBczRTQHnen6k0cVuhUFQgFemaDq0E9thBhl6ivJYE2wRN/s1dtNTubFi0LYJpESVz2T7YmaztTv1igY7wCRxzXCRa/qk/Tj3xVmJLmdvMuZN3tQTym/NLt8PRGY5kYcfWsVIdybs8ntUlxMzoiM3yr0FRKzfhSNEhwXB61KkW5xmouc1Zg+8M0gsX44lVAABUU9ssinA5qyh+UU7bVEHnGuRtFflWBB96zB1r0DX9OS6tJH2jzEXg4rz8ggkdCKC0Ry9c1FmpJugqHNJjFNJSk0hoGa/hmUxa3CMnDZWuk1Ndt4/51yWiv5esWzf7YrsdYGLvPqK56yN6Re0V8qy1q5rC0R8OwJrZyauGxnU3HE0xmpCTTC1USDHNc1qS4uSRXRk1zuqn99WUtzaGxkayATbt3KYrd8EvxcL9KwdX/ANRan2NbPgg5kuR7CtYmUtzsmPFaFg5MeM1nN6VesOhrkxJ1UC0hA1GMk9qzYiB4gcE96vE/6dHVEYOvP9azpq45ktnpbar4jKkfu0YFuK9QjiEUKqoACjAA9Kw/DViIUkuGALStnOK6B2wOa9KjGyOKozOuI9sit/CTVOQlddjB+6y9a0rpv3DEdRVe8hy1vOOowM10WMrjNZby7CQ55AP8qyvDqR2ull3dVEjlyWPrV3xNu/s8qozkVyy+HrvV7VIzO0SJwFHQ8UmgUjS13xBphtJbaK8Rrgg7Qo3c1zWgTwxXTXTxlSwwc9vwrnNS8LXtjrCGLdvVxggcHmuonsLm2hWW5K5cDIUY/OuecGzsozV0b1zd2txbld6spGCK465tBbXpaL/VscYqxci1kVdvmRuOpVjzUMlxBEA0kn3ecdzWS5os1rKM0WpIUt7X7RMcDtnvXSeFYSbX7Qw+/wBK5QO2ryKZR5duv3R61uaZ4mis7j7HPAYbVRhJcda6oNs8yoktjrJgN1c7cmW41hlztjjx+VbiXUFzGJIZUcEcEGsu7iJuN3Zhya3MCZZQXKxqAoGM461MhHSqKuC4SM4C8mrMcwQb+M9FWpZS0G3dsrIXUYYdqyjwa6O3j83cXOS3Uelc/eL5V3KmehrJo3jIZmjNM3UZqDRDs0ZpuaM0AOzRTM0ZoAVqBSZooAU8UmaQ0lAC0UlJmgBSaSkzRmgBeKOKTmjmgANNNLmkNACU0mlJpjGgChrR/wCJRc/7hopusn/iUXX+4aKaA83txutYv9wf0pUiMs6oKbaNmzg/65j+Va2mQDztzDmoA0baFY1VccAVa3ZOB0qPyzjinxxncM9KAIHJ8w05TgVLNFh+KjC0hjlOTUobaQaiQYpJJQG20xGtFNlRVgNWZayZQZq+rcVRmwm5jbvkV5zq9sbe9f0JyK9DkbEZrivECZcN2GaCkYEwzHVfFWZOYsVBiky0IRSY4p+KQrSAmsX8u9hcdnFdvrfM0Teq5rhIgVlQ/wC0K73VhvtLWQ9Sg/lWNbY3pbjNHcC5we9bzOoHJxXFrcSQvujbBpGu526ysazjUsjSdO51r3UKk5cfnUD6hbqOZRXKNK7dWNMLE96ftRKkdM+sWqdCW+lY17dpcyblBAqjmlFS53L5LDdVO61g46EitHwU5Gozp2Mef1FZtwxkjVCOB0rU8JII9SkPrGa2gzmqLU7QnIq/p5+Ws4nC1c09+cZrDE7G9Bloti7U+9UrRGuPEpQcc81alYfbI/c1o+GbBpNXuLtk+ReA3vxSoIKrsdtZAQwKgHCjFWpcNGGH5VBABhgelDxSqSyAMD29a9SC0OCT1M26nKgj1q47edaRxewNY2qzrGFY/KM9D2q5az7yhzkGtDNssalF5iRx9eBT4LZYVCilm+e4QDkA1aIySfehkoxbmwS5uHJQNt5pr2UNzbNHMgYAd60wm2SQ+oqoDhiD34pWNIysc5N4fjd2MMIMQHJNZb+G7TeWZ5XI/hJ4r0KC2QRdMq3Wpjp8MkeNgqVBA6kjhrPTrfhSgAHAGelRa1FbhVhCD8q6a+0mSEF4Fz7Vz0ul3txPukjIAPGatRsZu7MQWTpJCLd2Unrg10c7NDZosjFnAHNSQaY0Miuc5A7im3ULTSAc4GBQxWKglENq3Z5DnNPgYtsC5zj5e+KtS6e0rBiMIo5FPsoS0hKjlv0FJIdzY0+PZCATlj1Nc7rqCLUnx3Ga6a3AjGDXP+JVAvEb1WpkrIcHqY4anbqiBpQaxZ0EmaM0zNGaAJKKbnijdQA40maQmkzQAuaM0hNJQAuaSkJpM0AOpCaTNNoAfmjNMooAfmkpoPNGaAA0w0tNJoAoa1xpFz/uGima0c6Tc/7hopoR5zYDNrDn/nmv8q6LTlUCuf07JtIeP4F/lXQ2AIHINQNmiKeBTVGTUhjOKBEMjZqDdirEi7Rk1Qkc7sA0hk4JqNkJfNTkYjBqBnAFAFm1OFrRU8Csy2JKjitKPoKpESFc8VzevxKbdiB0ro271hazg275pgjj2XioimDVwx5pBCTSZaKm00bKufZx3OKcIol6utSxleKP5l+tbwuppYVjkbcqjjPassPbofvA1KLsfwjNYVVdG9NpMnfrTM1C9wx7YqMyMe9YqDOjnRYLD1ppkUVWJY0nNaKmJ1CczKOlIJ/SoNppyjFNQJdS5IZ8da0vDly51UAYwVrJcZq74f8Al1eMevFbRRzS1O/LcVPZviSqueKltTiUVhiFobUNzQkObuKuo8K3aG3uLYrhg+7PrwP8a5CaXbcI2OldV4Ug3teSHgN8o/IVNAdU6mH5m2irwHGDzWfZqYj8zFj0rQTLdRgV60NjzpmF4htIbm3Y4O+ua0u+kCxwNy6ylFJPYV2V+m+OQd8cV5zYzrH4qktFb5g4YZ7c81RB6MnY96tKuFqrAC0uM8AZq7njFAitIvJNZc2fOAHrWrMCATWV/rL4IOp6UFI04W/dgelW4TxVB1a3YKwwcU9bkr0FK5TRoMoPWmNEnXaKjjud45wKd5wx1piSIp4EZeVFZzWKhyw4z7VotKKryzKkbOeg5NITMfWJ1tbZIUYGVzjA7ClsYz5SKo5PU1kvcDVNVJjGQpxXTxxrDEqKMEDmmSxgUg471zniYn7Wg7beK6XGTXL+Jzi8jH+zUz2HT3MbPFANMJoBrmZ1IkyaduqLNLmmIlzkUZpgNLmkA7JpM0maTNADqM03NITTAcTxTSaQtTSaAH5oz7UwGigB+aM00UGgB2aTNNJpN1ADicVGXpHfioC/NAitrLZ0m5/3DRUOrNnTLj/cNFMDn9JtoDptnJgl/LUH06VqyEKowBWPpEmNOtcnjZ/hWg8qkVI2SR3I3cirQnBXiscON2c1bjfCjJoAsyHeprNbh6sNPxiqzOM5zQBbZh5QzVdV82TjoDUE92BER3qTT5VeLdnk9aQjUiQDpVxeBVFJlA+8KsLcRkfeH51RI+VtqmuY1y58uIgnk9q355JHUiOGRuwbGBWBd6TPcvuuXSMA8BjQNI537QSOKje4cHAOK2m0/T4Tl7kMfRRVC/jtOPswbPfNSyrFAyyH+I0nJOSSfxpdhzS7TSGNAq9BHmMHNUwDV+1/1RFS0VF2AikxViGLzZgnrXT2vgvUJbRrprfZAqFzI7AcY9KlRLcjkdp9DS7fat60FjPJthcS4OCNuMVY1OCzsH/eIdpHG0ZqlEXMcyENLs9q7Cy0fTb+ximN4sDP/Cy8isTVtPWwuZI45hNGDhXAxmk0NMyGHBq1ohxq8B96rOOKl0okanAf9qqRLO+HOafbnEwqIVJCf3wrCuvdNaO5YuyEkj9zXf8AhqHydMBx99t35155eZeaIdctXq1lCYbWKM9VUCjDIrEOyL8SgYPerRPymq8fapWOUP0r04nmyKFyCAx7YrxzTLhp/iQ5U4j80j8Aa9hvZNtq59FOa8O0+UL4qErH70pyenU1RK2PeI1SJNysDu5xTg2eTXNWU7BshzgcYJ7VvRyFkBpiZJMcxkVhqxXUzjrt/qK2iwxzWLMo/tNmB42H+YpMcdzReV7ggnqBikKnFV4ZfLOetTNLuPAxUmjJkyq0/dUIb5aTdgUxCyvisfWbp0sHWPlm4AzV6eTjPauSmup9R1swwjdGjckdM0E3Nzw9pk0URklXDue/aui8lY1KksW9cVQt1NvGpeU5AzjNWWvjOAsa4HeqJY51/hXk1x3ifjU1XvsrtYgsaFpOvavPtbl83VZG3E9uazk9CoLUo5ozTaWuY6R4NKDTM0uaYD80ZpuaM0AOzRmm5pM0AOJpM0maTNAhT0puaCaTNADgaXNMzS7qYD6M00NmjIoAGNRM2KV34qAtQArNTKQtmimhFTVf+QXcf7hopuq/8gu4/wBw0UwOaspNunWg4x5Q/kKnMwx1qtYade3Nja+VC2wxAhjwOgq8uh3PWeeKID1NQJlNpcc1Ya6UIAD26VK2n6dCQJb4ufRBSi40i34SBnb/AG6BlQzO/wBxSfoKVbLUJ/uQPg+vFWTr6x8QW0ae+KqTa7eyZ/ekA+lA7FoaDdEf6RLFEp/vNmpksNPtFxJelvaOsCS7mk+9IT+NRiRu5JpXCx0rXumQt+7t2kx3dj/jTX14hdsMEaDt8oNc+HJqVenNO4WLs+q3cikGUgegrLmmlfO5yfxqcioZFqWwKZPNMNSuuDUZpXKGGk25p+KMUrlCBKs24xkVBU8J+ai4G14b8n+3YfPGUwcjGc13MjweUI3lnZSOVLnBrze0ujaXiTDkrV99Vnmyd+BTTJZ0jRadbhvJtlUk8kd6p3F5ADyin0BrnzPITnzGpjOW6sTVXJ1Nd9RXPyKBWbqM5nVSTUIzTJcsBUstFR+lWdGhebUoio+6cmoGXNaPh4EXzjvis5SsaRhzM6w8UI2JAaiJI6U5c5zXPOpfQ6Y0uVmxpsAudatEY8bwa9TVSTgCvMtEhuG1SGSNDwPvdhXpEKSNGpaX5vUCuvDQ925y4mXQtiNxzninNJsUgjPHWqshmQY87j6VRmurmJsb8g98V3Hn3uxuryMNJuivUxtj8q8SZDBcxsTg4VvpXZa943mtbu5sxEJABt5HXNcjqJJeKQrtDxhgPwqb6l2PRNMufOt0IPOOvrXT6fNvj2seRXm3hnUNsYjb6V3VhL29apMTRqTuQjYODWbbxSSTsVyzEdPQVbmbeMdqjiJifehwaGJDQ2Gweo4IqUNxVV8rLnrk1YXHHNSjUlEmKZJJTXIHQ1XklAHJFUSzM8Qan9h0yaTcQxG1eO9VfDEU9rYLcBBI0h3tmud8Y3zXOsWVhECU3AueoBrttKi8izSMD5QOtISNGDULWY4uI9jdCM5rT3QQwh0AAIyOKyswR87dzH1pTIWGTwP5VfQhiz3MsjFi3A6CuHvJDLeSMeuTXW3jGC1luZCFTonvXGMSzs3qc1jKRpBCE0ZpD1orA3HA06o6UGgB5NJmkLUmaYC5ozTSaaSPWgB+6kJphYU0v70CJM0haoy9ML0CJd+KXeKrmWmGXFCGW9/pTGkOOtVvPqMzZ70wLJk96aXqv5madu4piJN3NLk1C0qRrvYhVHc1gal4jHzRWvXoWoA0Nd1CGCxlh3BpHXGB2orirmR5gzsxJ70UwNS31O6GmQRiZtqxqACeBxVZ55XOWYnNJZjOnwZ/55r/ACpxFZXKsR4Jp4FLinAU7gNxTGqXHNNZOOKm4EfWkxT8YpDQOwgNTKxxUOKkWgklpj04UjDNAypJ1qE1PKOahIoGNpaUCl4pFABmpogAahzipIz8woGSsvNSxKdtNPNTRDilcLDwtGypVUnoDmpBAx7U7isV9tAhd+AtXVgVevJqUDHQUAUY9NLH5zitXT4oLKYOo9jUJOKbzWco3NIysb63dsw5xT4QlxcRxxsPmbFc6CRWz4cRp9WRFyTtJArONFc2pq6t0eqaVaR29vHHHggD72OtbcRCgVi2rGOGNOcqoBqyJnHeupVo09DndGVQ0bkrJE3TIHFc5cXX70RscOTge9aLTORjNYmqW3m3drcq21o5BwO/BrojUU1ocs6Tg9Ty/wAQxtN4muY1GWaTAFaHiC3MFpaKeqxqp/Kus1Dw/BJ4iS/OCMZK46t61k+LbUtbBx0XtQVY5zSrjyblDngmvS7CXcqEV5PCf3i/WvS9KfbbxE+gqkyJI6IvQDUIbKg5qwqoIlbeNx7U7iSIphhc0zefLOOcVZmhLwgjk1WgIQFX65oKIxcAxHP3ga4nXPFX2a5eCAl5B/CBXSazdxWtu7b1BwcDivMLTT7zV9akdIz8r7juyBj+VK4WOq8M292Zm1DUY4wshBUSDJFd7bzlkVrcJJGP4c1Qhs/MsYYUJicIBlVBwQMdxVm3sJrLDPcZBPZQKYjUie3ncKYij+hqdoIwOgrLuru5sj5y2qzR/wB4Hmqa639pt3kjYYHbuKc3yq5KXNIpeKNQR2W0jPCnLY9c1zqurg7TkA1YuQ8sjSuc5zmuVh1F7a4cDld54rkc1I6VCx0VHSmQzxzxBkbNOakMTdQWxUZOKjZ+OKBEpkpplxVcy4qJpaYi0ZSaaZKqNPTPtFMC4ZKb5tUzcVE0xJoGX2lFMMvvVAyn1phmPrTEy+0o9ajM1UjKfWgSepoEWvNyaN9UZL6GIEl84qjPrSA4jQn60AbuSBnOPrVS71m3tkYKRI47ZrnLjU55+N20egNUySxyetMC3falc30mGYqmeFFQJCcZJpg4NSq/FJjGTJtiYdeKKdKcxN9KKpCJ7L/kHwf9c1/lTmpLIf8AEvg/65r/ACpzisDQbT1qLNOVqYE22kIpQc96CRSHYjIFMIqQ009KAGU5aSnLQFh4pTSUhOBRclleUc1FippDk8VHg0DRFg5pOamEZNLtAPvQMjWMmpUAUiporaSTkDA96tx2SJgscmkBWWN3PyqavwWT8Fzj2qUHAwoxT13dzQUSKix8AUpJzSDjrTgyZ5NAhyj2p2KBJH2NO4xQhkRTJpu3FSZpjGmIa3ArU8NXn2TWoW7P8h+h/wD1VksaRJGjYMpII5BFFxI9dsbljcSBzhc/LWmZBjg15rouvSmeNJm3AHvXexS+ZGrAcEdq5au53UbWLgfNVbwqsasxwAwJp6k1zPji9eDTooUbaZW5I6gVtQbOfEJFqDXINS1SW2h+YRJkvjgnIql4jbdZlccVkeCcPe3XUkRgEn61v65atLZMVGSK7UcljzjOyXPoa9B0O6W4s09uK89mUiVweoNdF4XuyrmIn3piaO/WTCAUNKGAJ7ds1RE/OBTJJGU80XFaxffxDBbAxu2WFc/qHiP52MYKjGc5rE1i4C3b8c1gTzyXEqxJnLnAAppgdHo1vc6/qLSSbnhRuAfrXplvpdskQHkIGwMkDFZPg7Rk03Sot4/esNx57nFdOBTWoS0RUW0iibciAVNIgxk8g9qmIBFZt1PIhKjIAHWqMWyCUrCwxlUJ521zd1FHFqExhP7uRc4rRu9TSH5ZZFUkcZrK3rcTFlkDA+hrlxNT3bHTh4e9dkNwwjtnJ6AGvPZG3Ss3qTXea24g0qUg4bpXAHiuSk20dVRWZdsr1raQYPHcV1NtcJdRhl6+lcPnmtHT9Qe1kB6r3rZGOh1TQhulVpoCOlXbaeO6iEid+oqO8t32b4/SolJopJMyXRlNV3JFNuLllYg8EVVNwTSVQbgSPJg1EZDUZfmmF8mtFURLgS7zTC59aSjFNTJcGG40m/PNIwOOKjGd2COatSRDTJS1U9QeREUKcKfSrWD6UjgMhDDNVdBZmLuVhhuaidAfu0+WKQTuqKSBzxT4YzJntikFmUmUimgmtCS2YdcUxbXe2AV/E0uYdinuo3+laP8AZ2f44/8AvqlGm/7cX/fVK4WM2SQ+WRRWlNp2IHbfF8oz96irTFYbZf8AHhb/APXNf5U9+lMs+NPt/wDrmv8AIU881kaEJoBNPIzTcUxDg2KXdSBeKXYaQxN3NGaCuKaaBC09RVqw0i+1GRVt7dmB/ixgCuz0nwMke17+Tc2c7F6UDOJWCRl3BGI9hmmPGRnII+te0wWVpbxCKO2jVBxjFVLnSdNmJaW1j/AUCPGnQA00IzfdBNepzeFNHmkz5TLnj5aik8D2DHFvO0X4ZpDPN4rN3PzcVcjtY4/4cn1NdjL4IuVJ8m5Rx23cVjXukXNiSspQ4/utmqUWxOSRmYFKFzTzHISAEJzTvJlT7yMPwpNNDv2G4AFANGPrTguKQ0xMnFJtYn0FOLAdKQbm70MByqqj3qTeaaq4pelIAoJpKQimAh5pMUo4oPWgB9uSkqlTg5r13w9DIdJt2lU5K55rhPCGjC/vhcSqRDF8273r12MJ9nIXBwMCsZpM66N0jMulC4IGM159473NNbjPGM12090skuzIyCeK5DxrCTaLOM4HymtKO5nWRH4HgQ29xcZAbO38K39TuY44cFhzx9K8+8J6v9gvTC5wkvyn2rV1u4n3yBSQMnHvXacZjasiC4LxkEHrjtUWm3Pk3KkVXF0MYb8c1A74bfGw4pCPR9Pu1lZQTzVu7mU8jkY9K4XSdUkebaOw/Wth724nYRKGLe3NJsVrmTrknmX+FB54/Gtvwz4YLzLdXaZUHKg1o6T4aaWcXV2uT/COldfDAsSgAAAVy1KrvZHXTpXVyW1HkpgdBWgJV2gk1R3qqndxVKfUYoJACetaUKjvZmWIh7t0bTTKB1/Os7UbiMQ7iwyeOKyp9T3DaGyT0rNvTNL5IDYAbcea7HscaXc5XX7qSXUWG4lAOB6Gs1LmSMjDEY9DVnVJY2u3cFTuY8Cs5m71xVVc6oabFm81G4ntmidyQTzmshiankfiqrnmojGxcpNig81Ih561Cp5qUdKshGlY6hJZvkHKdxXXWd5FeQBlIz3FcATgVe0u4miuQI2OCenrUyVyup0+paOt1GXi4k/nXKTRSQSFHGCPWvSdOj8+BSVw9N1bwwupWxKAJMOQcdaxcDVM8z60nGasXtlc6fcmC4iZHHqOtENhPOM7dq+poURORCD6VYjtZZOcYHqavR2cduMkBj704zL1YgD0q7WM+a5X8qKLCn5j61Tl2tOSO1WLi4VjhRiqgGTmouy0rj8cVDOSE461N0FRhdzc1SqMrlQlvAI13N941FOI4+QoB74qzM+2M4PNU1BuLhVP40e0YuUoXUVyuHKnY3Qiqu8+prrtqlAhAIHY1TudKt5ImdfkYDNNTJcTnCxPc0m5h3NNYMrHjIB61bisbiaHzUjO01tdENMpSyuEIDHBoqW4tJkQlo2AxRVIlosWf/IPt/8Armv8hUu00ywH+gW//XNf5Va6CsyysRigDmnP1pADmmIkVeOlP2cVf03Rb7UHCwwnH949K7TS/BMFsolvn8x+pTtSA4ax0e81KQJbQM2f4iMAfjXZaX4Et7ZklvJTI45KDoDXUJJb2yBI1VFHQKMVWuNRKD5OnrQBbihjgQRxoqr6KMUkkijIB6VlLfmaXaG59qux258wOrHBHOaBkZnnY/u2z7VJHbTStulkOD/DU6W6IxI71YAA6Yo6iI/s+FworMvNRaxkKEYNO1PWFtQY42BkPBx2rmJZZLmUlmLMa2VPS5jKrrYt3et3MylUYqPUVmxwT3D7uWBPU1uWGgzTKJJEIX0NbBsVtYPnVUQDvTTsS1zbmZptna2yrI8au49RU13q9kqkG2SRsf3RxWfd3oYFIuF9fWs08k9a1hRc9WYzrKGiGXXlXMpcQqmey1AbNCPSrOMVDI/arnThFEwqVJMrNZIM4Y1AY9pxmrag81C6HNcVS3Q7qbdtSDBFJg1LjFGRWZqR4pKkyKXimJkVPtrd7u6jgjGWc4FLsBrR0KeKy1WOd1BA6ZPejUaR6ZY6H/ZOixwxn5nwZCOe1XtOuDDIYmycjHTNU7LxDHL8ky4U9CRxirz3trEheErkjrXK+a56EUlEoPAv2h2VQMtmsrxPaM+hTsByBkVuwSI43nDZPY9KkvooGsZVkOYymWraGhhUVzwKMtG+9Thgc5967exf+29LUuf30Yw319az9T0GJleazzsyeM5xWPp+pS6PenOdpOGWu2LTVzgndMsXmi3AmbbGSKx7q2kg3AjBHY16Pb3EN/bCaIgginWmg2uo36iePK98VEpWKhHmOG8KwSXN+y+WxHrivX9H0G3tkErIN555HSpLfQLWwVVtVVcDI4qdJZLc7XP+Fc1So+h0QpW3LjqoBwOlVZLhI0JarC3EckDMeCKxmbzJDk5GazhBy3LnUUdhZZprp9sYIX1NOFjH5bmTLsRjOaniYCMDj8qSSQKprup0uXU46lS5UGn28Q3MSSo45rI1a6itrWSVyBGoOa1WLTg+nSvNPHOtiS+TTbd/kh+Z8d2rZuyMLXMuS4DMXC4yaj+0VXV/kH0ppbvXHN3Z0RWhZL7hUTnmkDfLmms2TSKHBuakDGq+alU8UCJd2a1tGh33Kn3rGXO4V1OhQnzFO3vTsB2lg3konHvW/b3STDBADVzycKKswzFWGOtKxRd1XRrbVI/3ijzByrY5BrzXWPP0m4aGVWHoexr1KC4Drg/eqlrGj22s2hgnUZx8rDqKAZ45NqkrjAOKptcyFs7jV/XdDudEvmhmUlOquOhFZWeadiCwLyTjgVMLxf7pqgaUEk4FRylpmos4cU8Oo71U+5GAx5pmfepcS1IsStup9lDgs561XU/LUiSsh4pcoJmkKDgqQehqot5jqpqYXKSDA4NTZ3KuimdLhbpkc5q+oCKFUYAqPzFDYzSmQH0qrsNCDUP+POU+i0Ul6w+xTc/w0VtG9jGW5k2CE2NuACT5a/yrXt9Iu7jBEe1T3NbugWNuujWcnlguYUOSPYVrY9KbBGJbeHre3UyTjzCBnHat/wAP+GdOubRtReDcWb5B2/KoZ1LW7qo5KkCtnwdMJfDYUfejdlYelIRB9oW1kMaKEUdl4p8moqYyC361mamsj3TKsZznORUtqioAJUyfcU0SRG5klmIVTjsalXSb+8lztZYx2JrTiiEsZjiUc9OOlakBlgiVGGSO9W4pISkyjYaKLZct97vmrzxLGtNnvdgxnms6S9Zz1OKyLJ3Y5JFZWpaqIVaFMlyOvpUt5O0MBbJGRxXNuWeRnY5JrppUeZ3OetWUUMyZGJbJY9TXUaDoJKrdXKkZ5VTVTw/pZurkTOP3aeo612hwBgcAdK1qvl0RjS953YyaSO3hMjkBVFcXqmrPfynHyxDoKua9qXnzeQjfInHHesA81rRo395mWIxFnaIxuaaRimmUBsAEmp0XIBraWmiMIau8iEoxXPaiO1MoJyAB61ZIyMU0oR7Vg6Mpas6FXhHRFm00U3O795hQM5Aqrc6PJEThwVqwt7cxK21vlxg4HaqFzqssiFAcD9a5KsOU7qc1JGa64Ygjmm7acXyxJPNG9QM1z2NrjCMU08U5m3dOKay8VokS2NL0LJhgaYRQB60WFc6CPX28qGHYPlAUk9+K0Bf7kASbj0BrlYrd5eFH41qWln5ShmPzVvTwsp6mFTGxp6NnS2GsmEbWbnPUipdc8SBbJYIhuD8SN6CufLc1DIu9stz9a3eXyaOf+1Y30LdtOhA8lgwHbrRqOgRaraiWLCSk9vWsZ0ktJPMhztPJAra0XWo4LuJpmIUMCQBmvNqUK1KXkehTxFKrHzMSxsNX0PUxbuw2vwUYHp6jj6V6HZyixsRJjfM+ABjvVi6vrLxBfRywRACNMbymCemaxre8jv8AVnaIFobdtinsSKc5No6KcUjtYpvs+nia6Kg4G45xzRNsmhQjDbuRisZ7mPWLhbR8rDDhpAOpPYfzqoJDaeIorCzmM0DDd1B21i43Zo5ItanK1mmCduTg1TtrndXP+PtbeG/js4peUG5sDvXM2/iW8hICsMD1r0aNLQ8qrWSk0erRyjbyaQqJ2AOfwrg7bxpKoAmhVh6qaW/8cXBhMdjEFdhgM3atuRoj2iZt+LfEkOi2TQwMGuGXCjPSvGWmaa7eaU5d2JJ9TV+/XULyd5rhi7nmst4JVblCKyqRdjaEovqawcFRj0qJ5DUUUmYh601jmuN7nQrFyOQNGKCapxSbDtPQ1YFAiQGpA2BUK5JAq0kJMZNMB8HzSCu00NBgHFcXbcTAV2+in5aYjoh0qVBUSfdFTqOBQUidXK4watwXG75W69jWcx4pqSEN1pDL2qaVa6vatBcxhsjhu4ryLxD4buNEumypa3Jyrj0r1+3ugRtY80X9lBqNq0FwgZGoFY8FxgU+FMtmui8S+F5tFcyx5kt2PDY6VhQ46d6AFkGXpccU89aUjikAqL8lMNTqmIs1FsJ5qUBGxqW3YbiT2o8s+lIBgHiqGhrsS5NG5vWkbrRmiwXILqVjbSKTwVopLsZtZD7UVpFaEM7fQudBsv8Arin/AKCKuEkGqfh51fRLMA8iFMj8BWg4zxUSBCI3tmrXhlvsGo3doeY5vnjPv3qoPlp8cvlyBx94dDSGdHAuJG8yIZPfFPlhtl+aQj8qqpqX2mFdoAkUc+9Vrm+TYySkDinewiwdXsoCY0xgelQzasHBEff3rlXdfOJH3c1ct5VJGelS5Nj5TZQS3C5wSB3qSG3cv91utS2F5Hs2rir6XYyNqZPsKcdWJ6HLatKftRizwvGKz0Te6qOpOKs3xL3krN1LGixQNdRAjOWFezTiowueLUm51LHa6ZbC0sEjA5Iyabqtx9msXYHBPAq6owg9AK5vxDfxyqtvGc7W+YiuGH7yrY9CdqdI52Vi8hYnkmmU4jNAFe3CmkrHhVKrvcQADoBSk80uKQjmq9nFamftZsUGhsYqC4uYLVN00qoPc81DHqInP+hQtcMehxhRUTqRWhtTpTk9S3OSts59qwm5PFX7+0mMDT3VxlhwEjyBWXG5rycTZvQ9jC6Kw8Kc807pT1dcc0yUjPy1yJHZfQTgmlcALnNNRGcjaCTVxNPdsbzgVtChKWyMJ14R3ZQRGkOFGTV+DTskNKcD0q3HFHbqQg59aepJNejSwKWsjy62PbuoD4444xtVce9SAUwGpAa7YJR0R5suaTvIYy0wrmpTTTVtkJELpkGqUlk24PERx/DWlwajb5ea56sFNWOmhVlCSYv9piz014raUpcSDa2f4aZa6umlaYIIXDTEHBzjn1rOvofOBdR845BrCvyXQEna6e1eTVwqie7Rxrm7Ho8eu2ul6OoM++4cb3OeS1Z1p4jh06RtRG57iUEKo7dK4YSNPEFbnFSZIwMVNOjdGs8RYl1S8l1C9kuJWLM5zVQcd6e9QnJ7V2whynl1J8zuPDkHgmrduSzdTVSKJmPStGCEqM1ajdmLnZFkOcDNJIoJyQDTTnpTHchD9KitZRNcM3KZiXJzcNjpmoDUkrZkY+9MNeTLc9tbER4NWYX3Lg1ARSKxRs9qQGjGu5gK1VixbcelY1u+ZAa3k5tse1AylbJuusV32h2wEeTXJadbbp8+9d3p8YSNfpTQFpjtwKmQ5HWoZabE2BQMnc8VFmnFs0mKAJIZAGGfWtSCTcME1jAc1at5Sh5pDNOe0hvbd4J0DowwQa828S+D302U3NmN9r1I7rXpUEu4VO8UcqFHUMp4INFxM8DyC1PrsfFfg6Szke8sF3QclkHVfpXHk44PWkxFpE/cDPekVRg1OF/0NWqBejDNJCI34HFQjmnynCe9NjGBzVFDHTnNNI4qZxgGo9uRSJZVuhi2k+lFOvFxayfSitVsSzY0O6ltIbdeqmFG5PYiuqtp47lNyNmuPvLR5NJ0nyXCGS2QMxPsKS2uJtG2h7nzMttwKTQ0doy1E4x0qKw1KG6jUNwT3z0NXmh4yDkVDQ0UlmkhbcjEEVObqG6wso2v0LetIYfWoZLQOc96nUZBc2hiOV+YVWWUx1q28UiYV+R71JJYxTDpg0rDM+DUZEICAZrtdId2tFZguSPSuW/sUrlkkGe1aFl9sttoL/KPenHRilsVNYgMN8+RwxJzVa2lEEyOeikVe1/UYGVF2nzPUCudaZiTycV6X1lcljzVhnz8x6Kpn1AKYSY4ccn1qp4gsY47CMwpgqfmPrWbpniaOz05YHGWXpmtH+1rbU7RkaRVJHSuejO1S5014Xp2OXI5pMVLKu2QjjGetNr241Fbc8GVGV9huOKYsCGQGTLL3GcVNjNLtNEpX6jhBx1sZj6JZSXTTsrNk8K7Zq5DAkGREoQegqfbSGsVTV7mzqytYztTB+ybfU1jBGGcKa6WSBJwA/IFAhjjGFQVhWoOb0OmhiI042OejhllICoee5q9FpZBzK/4CtXCegH0qMr71VLCpPUzrY2TXukaIsY2qBStmkIOatwQwyREvJtYdq9BOEFax5jjOo9yg1OWnTYViByKYhqua60I5XF2ZJmlzTDkU3dUM0Vh5NNJpM0wmkOyHlqjY7utANBqGzSMb7ERWq9xaxzqVdRg1bNMYYUt2HU1hUs9zoptp6GK2m+S/BymelSm1Qj0H0pLrWoI2MUKNPL2CjipLN5pYi00exieBWEUlsdMpNrUiNmnakFmvpV/bRtrZHI2VUgC9qkxgVNtppTirM2mQEZqtcsEib6VcYbRms29kBRgO9cWJlpY9LBQ6syGOTn1pKjQ53D0NSAV5zPTQhppFSYphFAMfaSYlAPrXUQ48j8K5MAqwb0NdJYTia3HqKBo2NLiw249zXYW3EY9q5XTiMLXRwS447U0MuucqajXjpTiflNNUimBICaeKRMYp1IAIp6imZzUijNAyeGQow54rSinyfasvHFWIH2kA9KQjSYK64IyDxXBeK/BpAk1DT0JGMvGo/lXdI4AAJHPSrAGV29jQFjxxYGOjk4IYDoRg1joxPSvWfEWgrJp1xJaRgSFfugda8kB8lmRwQw4IPakiRjsWk21PjbjNV0OZc+9TytllplAwyDTE+7T24HWokbBxQJkV5zaS/Sikvf+PaX/AHaK0iZs2dRgEnguycZBjhjII6j5a5lb5bmBYbj7ycqw7126w+d4NgX1tU/lXnB+WUj0NAzqtGlIiPJIzXU6VdTXJZRIq7ezd643SX4wD1HStezvUs7xRKwCkg5NFgOvW4gb5ZV2MOMipxZ+YMwurj261LYRx6ojG3VH2LlmPGKyLqSS2uWESjg4wrYo5R3LrwtGcMpU+4oGMcVBF4geEBJ8EdMSitBNQ027GXhKcffifI/Ko5RpkCk+tE0/2e2lmblY1LGotSuoNPljFvunRxncw2haddumoaVLFGhXzoyA/aqUCJSOG/4SWTUJiDGoUnj6VOt/GeGUiua8k2F6YWZSUbBKnitHfu5FVyCUjXS4gk/j2mp1DD7knH1rA3EGniV16MR+NJxsyr30N4vMvJOaVbmReorHS/nQYLZHvVqLVuMSRg/hVKpNEOlBmvFej+KrIuoz0IrHF9aOOQVNO2xSDKSj860jXktyHQi1obAmQ/xCgsp6GsdopEGQ5P0qMzzJxk/lW8cTY554W5ucU01jLezAj5qv292ZeHGDW9Oumzlq4dxROaaacetNNdkZI4pRGGkLYpWphrRpMxUnF6CsA/WljQDvTaXNTyvoaKonuI5POOlQpJvbb3qRjionY1Luhpwe44kbsZH50jA1FsB5HBpCZEHqKnndtR8qexMuc04Atn7oA6knGKrmRmXCjB96jW33A+Y5Oew6VjKbOiEEhs98m4pbESvjoM4/OqTWV1eHfczGOPvGnf61pLDHEMRqqj2FOrN3ZfMo7FS3soLVcQoo/nVjaTTsUoFCjYTk2N2EUbakA9aXAqrk8pEVphFW18nynL7i/wDCBVc+tPmsg5NSndNsjNYV05K/jWxqD8YrDuDwK82tO7PWoQ5YmevyXRHqKs1VJ/0wfSrOa5mdKCiiikMKs2V0beTBzsPUVVprEimB01tqih8K2BXU6bciRQd2TXmlrLtlGa7TRJ+VBJ5pjOz35SmqahWQFBinK1MRbQ8VIelVo25qcNmgB8YzVpF4qBOOlTK3GKRQ/FA4oFBoAT7WBIE7VqwXKABWP41hyoM5xUkE2DhqQHSKwPuDXF+L/Ba6hDJeWCBbjkso/irpYLnGAenaroYMM0gPnkxyW0pimUq69QalLA4Ner+KfB0WsRtdW4CXSjsPvV5TeW81lM0E6lHU4waYiNpKaCSM1GWyanjGUoEyG5ObWT6UUl0P9Gk+lFWiGdjocn2jw5AhGQIQv6V53qMJgv5o8Y2ueK7zwlNnTYYiePKBrlvFcHla5KR0b5qoRHpUm2WPnjvWrcWv2u4SFcbmYAVz1kcN7ZroXlMTRzoSCmCD6GgDu/Duj6gtt5METkEYZjwPzqa90uHQmE01yJ7hwRs4IWsqHx5eXGnCAO4eMbTjoazI9TvdSu0iuDlS2Bx0qhD76YzkEgA9ciqqQZkUBygJwSDXoiaDpdvZRx3ETSsw5Ydq5rWdAFsDdWLebag4J7ofeiwXMjU7C9837OboTRqBhg3WtjTv3WhiBz84DAYqrDEAg9av2C5glUjJ7U0ZyueS3GUu5VPZz/OtO2k3Qj2qnrCCLWbpQMfOeM1LZn91RcaLjUmaQmjHNBQGQA4NPyR1B5qpeAiLcOoNLb3MksKq5zt4FKwXZaBpQxHQ4qMdKqiYi4IzxRYLs01uZU+7I351MmoSgYcBx7iqQOaM0rDUmaaX8B+/CVPqtWIpIX5iuVU/7fFYlFUtBOz3OlC3kfIw69cgjmmm8dDtkQg+4rASaSM5R2B9jVxdWugMOyyD/bWto15IwlhqcjXW7iYc8VJvVuQRWWmqW0i4ntdp/vRmrkNpHdwNcwSSRwo21iwzg49q6Y4s5KmBV9C1gYpOlQPZ3QAaGRZV/wB7BqIyXcRxJA5+i5rZYk5pYNosPUJ5phvU6OpU+9Amibo1bRqxkc08PJC0daU47EUc1ouVmTUkB4pBSmkFZygjSMmKeRSbacKUVizoQ3FAFOoqSkJQc0tFKxVxpGajk+UE1LVe4zis6jsjWlHmkY97JlyDWZP0FXbokyH2rOunCDJNebJ3Z60dEVAN11n0FSg5NVYZHKtIVwWNTZbA9azZSJ6KiEpA+YGnLNG3fH1oGOpGGRTsUEUDIAdrZrpdFuTleehrnHWrmkzmOcA0wPS7SbeAKurWJpc2WA9q3AOKAHqSDVhGquBUq8UAWkaplNVVNShjQUi0DxTS4qINxTQ2TQMlPNN246CnKOKDSESxykYzWpbz8AGscdaswylcUAbiNwMGuc8UeFbfXbdnjUR3WMhgOtbEMwIHNWlboRQJnz1qGn3Om3bW9yhR1OPrSRMOle0+JPC9v4gtj8oS4UZVwK8ev9LutIv2t7pCpHQ9jSYineHFtJ9KKZdNm2mz1oq47EM63RtFv7O3tsDBVFDjj8aTxJ4Zm1S4Sa3K7tuGycV7vaaZafZom8iP7g/h9qsf2danrCn5VVnY7V9XtqmfMsHgzVInyfL256bxWx/wjV4yYJTp0zX0F/Zln/zwj/75o/s20/54R/8AfNGov9m7M+frXwzdwM2QDn0rX0zSHgvYpLlMxK2WAHJr2n+zbX/nin/fNO/s+2/55J/3zT1C+G7Hn1zf27kKnmYHTI6VUiu1glBC7om4kQjhhXph061P/LGP/vmk/s21/wCeEf8A3yKeov8AZuz+88hvbeH7W/2QEQH7ue3tUcUToxx0Nex/2baf88I/++aP7OtP+eEf/fNFmH+zdj5z1vwnc3159otlQFsljnGeagt/B+oxqAfL/wC+q+kv7NtD1gj/AO+aX+zbT/ngn/fNFmP/AGbsz52/4RS9HeP/AL6pf+EWvfWP86+hzptp/wA8E/75pP7NtP8AnhH/AN80tQ/2bsz53fwneuMHyyPrTE8I3qdPLH419Gf2baf88I/++aP7NtP+eEf/AHzRqF8N2Pnc+Fb/AGEAx5+tV4fBmoGb5vLy3TLd6+kP7NtP+eEf/fNKunWinIgj/wC+aNSW8P0R4Mvw81ggHMX/AH1S/wDCvNY9Yf8AvqvfDBD2ij/75FH2eL/nkn/fIp3Zyu19DwP/AIV5rH96H/vqj/hXmsf3of8AvqvfPs8X/PJP++RR5EX/ADyT/vkUCseB/wDCvdZ9Yf8AvqlHw91j1i/76r3v7PF/zyT/AL5FH2eL/nkn/fIouCR4J/wr3WM9Yf8Avqu18F6J/Yul39nq8SyR3LjATnGFxmvRvs0XeJP++RR9ni/55qPwouJq54ze+DbkXTfY2VosnbuJBpE8LauoxvUD08w17P8AZoScmNSfcUfZYP8Ankn5VqqrRk6V9Txw+FdRkGHWBvrj+eKafAzyL/q1ib18zNezC2h/55J/3zR9mh/55J/3zQ60uhXsovc8PbwLqKMfLnQj605fB2rL/FGfq1e3fZYf+eSflR9lh/55J/3zTWIqImWGotHii+EdT/i8r/vqn/8ACIah/wBM/wDvqvZ/ssH/ADyT/vmj7JD/AM8k/wC+a0WKmYSwUG9DxkeEdQ/6Z/8AfVH/AAiOo/8ATP8A76r2f7LD/wA8k/75o+yw/wDPJPyo+syD6nE8Y/4RHUf+mf8A31R/wiOo/wDTP/vqvZ/ssP8AzyT8qT7ND/zzT/vmpeJYfU4njP8AwiOof9M/++qP+ER1D/pn/wB9V7P9lg/55J/3zR9lh/55p/3zR9ZkX9TieMf8IjqP/TP/AL6qGXwbqbg7fKz/AL1e2/ZYf+eSf980v2WHH+qT8qznWcjSGHUGfP03w91mQk5h/wC+xWfN8MddkP8AyxP/AAMV9IfZ4f8Anmn/AHyKPs8P/PNP++axZufNyfC7XAP+WB+jipP+FYa4P+eH/fYr6NNvCOkaf98ij7PH/wA80/75FKwz5y/4Vjrn/TD/AL7FMb4W6yw5Fv8A9919IfZ4v+eaf98ij7NF3jT8qVgPmwfDHX1GF8jH/XQVIPhnru3nyM/9dBX0f9lg/wCea/lS/Zocf6tPyp2C584f8Kx1w/8APD/v4KQfDDXVcMDACDn/AFlfSH2eL/nmn5UfZ4v+eaflTsFzxXTfB+qWzDzjCAB2fNbaaJdKB93869O+zRf880/75FH2eL/nmn/fNFgueZ/2Ndf7P50o0a6/2fzr0z7NF/zzT8qT7PF/zzT/AL5osFzzldKuB1Ap/wDZk46gV6H9mhz/AKtfyo+zQ/3F/Kiwcx57/Zs2Og/OgabMOwr0L7ND/wA81/Kj7ND/AM81/wC+aVh8xwIsZQORR9if0Fd99mh/uL/3zS/ZoP8Anmv/AHyKLBzHAiycUv2OSu9+zQf881/Kj7ND/wA80/Kiwcxw0UMsbcnirsbFeDXWG2h/55r+VJ9mhz/q1/75osFzmBMF71la7o9nrloYplCyAfLJ3Fd59lhP/LNP++aPs0I/5Zp+VKwrnzzffDvVVtZ2RoSigt94ZIAzRXvmp28I0i9/dr/qH7f7JoqkhMtWY/0KH/cH8qS5vILOLzJmx6DqSfYCnW8YS0hKnqi8fhVKzRbvWrp5QD9m2pGPTIBz9a0ila7ARdSu5Rvg0qd0PRi6rn8DS/bdR/6A03/f1P8AGtsKBS4pc8ewWMP7bqP/AEBpv+/qf40fbdR/6A03/f5P8a3MUYo512Aw/t2o/wDQGm/7+p/jR9u1H/oDTf8Af1P8a3MUYo512Awzfaj/ANAab/v6n+NJ9t1H/oDTf9/U/wAa3cUYo512Aw/t2o/9Aaf/AL+p/jR9u1L/AKA0/wD39T/GtzFGKOddgMP7dqP/AEBpv+/qf40fbtR/6A03/f1P8a3MUYo512Aw/t2o/wDQGm/7+p/jR9t1H/oDTf8Af1P8a3MUUc67AYf23Uf+gNN/39T/ABo+26j/ANAab/v6n+NblFHOuwGH9t1H/oDTf9/U/wAaPtuo/wDQGm/7+p/jW5RRzrsBh/bdR/6A03/f1P8AGj7bqP8A0Bpv+/qf41uUYo512Aw/tuo/9Aab/v6n+NH27Uf+gNN/39T/ABrcxRRzrsBh/btR/wCgNN/39T/Gj7bqP/QGm/7+p/jW5gUYFHOuwGH9t1H/AKA03/f1P8aX7bqX/QGm/wC/qf41t4FGBRzrsBifbdS/6A03/f1P8aT7bqP/AEBpv+/qf41uYFGBRzrsBh/btR/6A03/AH9T/Gl+3aj/ANAab/v6n+NbeKMUc67AYn23Uv8AoDTf9/U/xo+3al/0Bp/+/qf41t4FGBRzrsBh/btS/wCgNP8A9/U/xo+3aj/0Bpv+/qf41uYFGKOddgMP7dqP/QGm/wC/qf40fbtS/wCgNN/39T/GtzAowKOddgMP7dqP/QGm/wC/qf40fbtR/wCgNN/39T/GtzFFHOuwGH9u1H/oDTf9/U/xpft2pf8AQGm/7+p/jW3ijAo512Aw/tuo/wDQGm/7+p/jR9t1H/oDTf8Af1P8a3MCjAo512Aw/tuo/wDQGm/7+p/jR9t1H/oDTf8Af1P8a3MCjAo512Aw/tuo/wDQGm/7+p/jR9t1H/oDTf8Af1P8a3MCjFHOuwGH9u1H/oDTf9/U/wAaPtuo/wDQGm/7+p/jW5RijnXYDD+3aj/0Bpv+/qf40fbtR/6A03/f1P8AGtzFGKOddgMP7dqP/QGm/wC/qf40fbtS/wCgNP8A9/U/xrcxRgUc67AYf27Uv+gNP/39T/Gj7dqX/QGn/wC/qf41uYFGBRzrsBh/btR/6A03/f1P8aT7dqX/AEBp/wDv6n+NbuKMUc67AYX27Uv+gNP/AN/U/wAaPt2pf9Aaf/v6n+NbuKXFHOuwGD9u1L/oDT/9/U/xo+3al/0Bp/8Av6n+NbtGKOddhGF9u1L/AKA0/wD39T/Gj7dqX/QGn/7+p/jW7iijnXYDC+3al/0Bp/8Av6n+NH27Uf8AoDT/APf1P8a3aXFHOuwzAOpXsQLzaTOkY6tvVsfgDmrlpeQ3sW+Jvqp4I/DtWkQD2rA1GP7BrNrcRAAXTeTIB3OM5/ShNPoBZ1U/8Si8x/zwf/0E0UaiN2kX5xx5EmPyNFITLMH/AB4w/wC4v8qpaT/yFdU/66J/6BV2D/jxh/3F/lVLSf8AkK6r/wBdE/8AQKpfCxm0KWkFLWYBRRTS4XrQA6imbz2Qmje39w/nQA+imF2A+4aFkVvb60APooooAKKKKACiiigAooooAKKKKACiiigAooooAKKKKACiiigAooooAKKKKACiiigAooooAKKKKACiiigAooooAKKKKACiiigAooooAKKKKACiiigAooooAKKQkAZJxUTXMa980ATUlQfaoz0rPuvE2k2YPnXaDHUDn+VVGEpfCgNiiua/4Tvw/wD8/h/79P8A4Uf8J34f/wCfw/8Afp/8Kv2NT+VgdLRXNf8ACd+H/wDn8P8A36f/AAo/4Tvw/wD8/h/79P8A4UewqfysDpaSuei8baDM+xLzn3jYf0rZtr22u1DW8ySDr8pzUypzj8SCxZopBS1ABWJrw/0nSv8Ar7H/AKCa26xNe/4+dK/6+h/6Caun8QmWNR/5Al7/ANcJP/QTRRqP/IEvf+veT/0E0UgH25P9nwf7q/yqrpP/ACFtV/66J/6CKs2//IOt/wDcX+VVtJ/5C+q/9dE/9BFUvhYzZFKaQUHpWYCFucUgFIgyCfen9KAForkPG3jj/hEbYMmm3N5M0byDy1GxAO7HPFTaH40tLzwhZ6/qjx2MVwdvOSoOTgdPY0AdTTWUGs+PX9Lm1EafHfRNdld4iB5x61oigBobDbT+FPpkuAhb0pwoAWiiigAooooAKKKKACiiigAooooAKKKKACiiigAooooAKKKKACiiigAooooAKKKKACiiigAooooAKKKKACiiigAooooAKKKKACiiigAooooAKRjtBJparXjlYwB3oArzTmRj6CoSRjJOB3JptZHii7NpoNw6nDMNqnPetKdN1JqK6jW5zHibxTLNLLZWT7YRwXU8muQ55JOSeSTSglhuPWkJr7LC4OnRgklqNiUV0OleHLe+0r7dcXv2dA23n1qtqPh66sp4kjAnSYZidOjVUcRQcnC+o+VmQKK2NP0JriaRLovBtQsOOuKtQ+Go3stOnNww+1SmMgjpjP8AhRLE0IuzCxztW9O1O70q5We1lZSDkqDwaXVbNdP1O4tVYsIn25PeqR5FVKlSrw1WjFY9r8Na/FrtgJBhZ0GJE9DW5XjPgm/ks/EUCKx2ynYw9R/kV7KOmfavkMbh/q9Xl6CYtYmv/wDHzpX/AF9j/wBBNbVYmv8A/HzpX/X3/wCymuel8YizqH/IEvv+veT/ANBNFGof8gS+/wCveT/0E0UiWOt/+Qdb/wC4v8qraT/yF9V/66J/6CKs2/8AyDrf/dX+VVtJ/wCQvqv/AF0T/wBBFUvhZRsig9KBS1mAyP7p+tPNRj5W9jUnWgDmfHyg+BNaIUFvskvb/ZNcFbTWNv8AAKNNRV9kkDIqAfMW38YzXr80EVxC8M0ayRuNrIwyCPQiqsmjaZLZJZyWFu1shysRjG1T7CgDxf4IILDW7211eCaHVpYg8Rl43R54A9+te6iq506yN2t2bWL7Qi7Vl2jcB6ZqzQAyX/VketOHSmn5vpT6ACiiigAooooAKKKKACiiigAooooAKKKKACiiigAooooAKKKKACiiigAooooAKKKKACiiigAooooAKKKKACiiigAooooAKKKKACiiigAooooAKqXwO1at1HOm+IigDLxXP+M4Xm8PvsGdjhj9MH/GuiIIODVe8tVvLWS3f7rjBrfDVPZ1Yy7FRPGD0pKu6lp82nXbwTKRg8E9x61SNfcQmppSRR19naz3fgJooELu0+cD6Gt7T2S3fw/YzlRdLuLR9SPlNedQ6je26bILueJfRJCo/SmfbLr7QLj7TL5wziTed3515FXL6lRvVdX947nc6fqFzf8AiXU45zmK3EqIMdBn/wDVUsAzpmggDP8Apj/zeuCS8uY5XljuJVkfJZlYgtn1pw1C8VI0F1MFjO5AHI2n1Hp1pyy6d1Zq3/AsFy/4ox/wkl6AP4/WsfvUk08txKZJpGdz1Zjkmo69SjH2dNRfRCNjwvC8viWxCDpICfpXtq8AD2rz7wD4dmhc6ldLsLDEan09a9CFfJ5pWjUr+70IYtYev/8AHzpX/X2P/QTW3WJr/wDx86V/19j/ANBNcNL4kIs6h/yBL3/r3k/9BNFGof8AIEvf+veT+RopEskgGNOtv91f5VU0n/kL6r/10T/0EVbh/wCQbbf7q/yqppH/ACF9W/66J/6CKpfCyjZFLSClrMBCMimAsOgBFSUUAR+Yf7rUeYf7jVJRQBH5h/uGjLtxjAqSigBFGBiloooAKKKKACiiigAooooAKKKKACiiigAooooAKKKKACiiigAooooAKKKKACiiigAooooAKKKKACiiigAooooAKKKKACiiigAooooAKKKKACiiigAoNFFAEElsr8jrVVrZ1OMZrRooC5zuqaBb6rDsnjyw6MOorjLz4eX6yf6JKjp/00OCPyr1TijA9K7aGYV6CtB6D5jyA+ANZ9YfzP8AhR/wgGs/3ofzP+Fev4oxXT/bWI8vuC55B/wgOs+sP5n/AAo/4QLWv+mP/fR/wr1+in/bWI8vuC55Cvw/1piBmEe5aum0T4fwWjpPfP50q87B90Gu4owKwrZriKi5b29B3GxxqihVAAAwAO1PpAKWvP31JYhrE1//AI+dK/6+h/6Ca2z0rE1//j50r/r6H/oJrSn8QmWL/wD5Ad7/ANe8n/oJoov/APkB33/XCT/0E0VIiWD/AJB1v/ur/Kqmkf8AIX1X/ron/oIq3B/yDrf/AHV/lVTSf+Qvqv8A10T/ANBFUvhZRsilpBS1mAUUUUAFFFFABRRRQAUUUUAFFFFABRRRQAUUUUAFFFFABRRRQAUUUUAFFFFABRRRQAUUUUAFFFFABRRRQAUUUUAFFFFABRRRQAUUUUAFFFFABRRRQAUUUUAFFFFABRRRQAUUUUAFFFFABRRRQAUUUUAFFFFABRRRQAUUUUAIelYmvf8AHzpX/X2P/QTW2elYmv8A/HzpX/X2P/QTWlP4hMsX/wDyAr7/AK4Sf+gmii//AOQFff8AXCT/ANBNFSIlg/5B1t/ur/Kqmkf8hfVv+uif+gircH/INtv91f5VU0j/AJC+rf8AXRP/AEEU18LKNkUtIKWoAKKKKACiiigAooooAKKKKACiiigAooooAKKKKACiiigAooooAKKKKACiiigAooooAKKKKACiiigAooooAKKKKACiiigAooooAKKKKACiiigAooooAKKKKACiiigAooooAKKKKACiiigAooooAKKKKACiiigAooooAKKKKAA1ha//AMfOlf8AX2P/AEE1umsLX/8Aj50r/r7H/oJrSn8QmWr7/kBX3/XCT/0E0Ul//wAgG+/64Sf+gmipQiWD/kHW30X+VVNI/wCQvq3/AF0T/wBBFW4P+Qbbf7q/yqppH/IX1b/ron/oIpr4WUbIpaQUtQAUUUUAFFFFABRRRQAUUUUAFFFFABRRRQAUUUUAFFFFABRRRQAUUUUAFFFFABRRRQAUUUUAFFFFABRRRQAUUUUAFFFFABRRRQAUUUUAFFFFABRRRQAUUUUAFFFFABRRRQAUUUUAFFFFABRRRQAUUUUAFFFFABRRRQAUUUUAFYev/wDHzpX/AF9j/wBBNblYfiD/AI+tK/6+x/6Caun8QFjUP+QDe/8AXCT/ANBNFGof8gK9/wCuEn/oJooRLJYP+Qbbf7q/yqppH/IX1b/ron/oIq3B/wAg23/3V/lVPSP+Qvq3/XRP/QRTXwso2hS0gpazAKKKKACiiigAooooAKKKKACiiigAooooAKKKKACiiigAooooAKKKKACiiigAooooAKKKKACiiigAooooAKKKKACiiigAooooAKKKKACiiigAooooAKKKKACiiigAooooAKKKKACiiigAooooAKKKKACiiigAooooAKKKKACsPxB/x9aV/wBfY/8AQTW5WH4g/wCPrSv+vsf+gmrp/EgJ9Q/5AN7/ANcJP/QTRRqH/IBvf+uEn/oJooQmTQf8g23/AN1f5VT0j/kL6t/10T/0EVcg/wCQbb/7q/yqnpH/ACF9W/66J/6CKa+FjNoUtIKWswCiiigAooooAKKKKACiiigAooooAKKKKACiiigAooooAKKKKACiiigAooooAKKKKACiiigAooooAKKKKACiiigAooooAKKKKACiiigAooooAKKKKACiiigAooooAKKKKACiiigAooooAKKKKACiiigAooooAKKKKACiiigArD8Qf8fWlf8AX2P/AEE1uVh+IP8Aj60r/r7H/oJq6fxICfUP+QDe/wDXCT/0E0Uah/yAb3/rhJ/6CaKEJk0H/INt/wDdX+VU9I/5C+rf9dE/9BFXIP8AkG2/+6v8qp6R/wAhfVv+uif+gimvhYzaFLSClrMAooooAKKKKACiiigAooooAKKKKACiiigAooooAKKKKACiiigAooooAKKKKACiiigAooooAKKKKACiiigAooooAKKKKACiiigAooooAKKKKACiiigAooooAKKKKACiiigAooooAKKKKACiiigAooooAKKKKACiiigAooooAKw9f/4+dJ/6+x/6Ca3Kw9f/AOPnSf8Ar7H/AKCaul8YE+of8gG9/wCuEn/oJoo1D/kA3v8A1wk/9BNFCEyaD/kG2/8Aur/Kqekf8hfVv+uif+girkH/ACDbb/dX+VU9I/5C+rf9dE/9BFNfCxm1S0g60tZgFFFFABRRRQAUUUUAFFFFABRRRQAUUUUAFFFFABRRRQAUUUUAFFFFABRRRQAUUUUAFFFFABRRRQAUVUvL+KzUFyWduERRksfaqsT6ndEOwS3jIyq4ywHvnvQBq0VmsmpwgtHJHNgfdfjP5CpLLU47tzEyPDcAZaJ+oFAF6igUUAFFFFABRRRQAUUUUAFFFFABRRRQAUUUUAFFFFABRRRQAUUUUAFFFFABRRRQAUUUUAFFFFABRRRQAVh+IP8Aj50n/r7H/oJrcrD8Qf8AHzpP/X2P/QTV0/jQFi//AOQDff8AXCT/ANBNFLf/APIBvv8ArhJ/6CaKQmPg/wCQbbf7q/yqppH/ACF9W/66J/6AKtwf8g22/wB1f5VU0j/kL6t/10T/ANBFUvhYzaHWlpB1pc1mAUUUUAFFFFABRRRQAUUUUAFFFFABRRRQAUUUUAFFFFABRRRQAUUUUAFFFFABRRRQAUUUUAFIx2qT6UtMl4ib6UAZFiRM02qXEiMhz5OOgX8e9ML3F9C93c3R0+1HMe1gpxzyxPHvTGKjwnEUPHydP98VS8UxLfarpGlzZNpM7PLGOA+0rhT7HNAF2IyiE3Gm6p9vVD84aQOCPQY7/wD16sXDG8so723by5oTk7uw7g/hWDplhbaH4/bT9NiW3s57Jp2hjGF3hlGQPoa2NNK/8TsOzGMXDhtx4HyjIHtQBs206XNvHNGco6hgalrO0T/kFxY+5/B/u9q0aACiiigAooooAKKKKACiiigAooooAKKKKACiiigAooooAKKKKACiiigAooooAKKKKACiiigAooooAKw9f/4+dJ/6+x/6Ca26xNf/AOPnSf8Ar7H/AKCaul8YFjUP+QFe/wDXCT/0E0Uah/yAb3/rhJ/6CaKEJjoTjTrf/dX+VVdJP/E21b/rpH/6AKsxf8g63/3V/lVXSf8AkLat/wBdI/8A0AVX2WM2c03eRS02sgJA+afUHTpUqNkUAOooooAKKKKACiiigAooooAKKKKACiiigAooooAKKKKACiiigAooooAKKKKACiiigApGAKkHkHrS0UAYliiqk2kzR7VTJiPqvY/nWbq6GPxL4fjLFyiOpY98bea0fFGoHSNGk1BIRJOjKkWezMQoJ9ua5KLT9XtvFeiXWpal9qaZJC0Y6Ifl4X2oAseINRvNO+Its9lYS3szac6iOMZwN68n2GK07DxnoF4JbS8kWxvncxT2swwwb0OKdJDL/wALPt5/Lbyhpcil8cAmRTjPrWHbWVrd3njNbmFHO+RssvIIUEH8OKAPQbWOK3tYoYf9WiBVx6AYqevLPC76hpWn6De/2pcXMF9tjkgmO5UzgDbwMV6kPQ0ALRRRQAUUUUAFFFFABRRRQAUUUUAFFFFABRRRQAUUUUAFFFFABRRRQAUUUUAFFFFABRRTHcKPegBWcCoy7H6UnXk0UAOUmsbXj/pOk/8AX3/7Ka2RWLr/APx86T/19j/0E1pS+JAWb8/8SK9/64Sf+gmii/8A+QFe/wDXCT/0E0VKExYDnT4P91f5VW0n/kK6r/10j/8AQBVmD/kHwf7q/wAqraT/AMhXVv8ArpH/AOgVa+FjNjNRrLG7MqupZfvAHkVT1iee309pLdctkAn0B6mnaXbwRWavC/meZ8zSnq59ayAu0qnBpKKAJ6KB0ooAKKKKACiiigAooooAKKKKACiiigAooooAKKKKACiiigAooooAKKKKACiiigAooooA5f4gDPhKX/rvB/6MWpr3TLi41jR7qNB5VujbznpnH+FXPEmnHVdAurVQS5AdAO7Kcj9RUHhbWP7X0hDKNl5B+6uIz1WReDx9c0AbYA3Z71VfTLNkulWBEa6DCV1HLZGDk1aAx+VKaAOK1rTYNJi0Cxts+XHdKFBOTgEV2orkdWlW98eaRYxkP9nR5pgP4Pulc/XBrrhQAtFFFABRRRQAUUUUAFFFFABRRRQAUUUUAFFFFABRRRQAUUUUAFFFFABRRRQAUUUUAFQnlialPSoc5NABWFr/AIiOiXWmQpbfaPtkrI2GwVAXdkVumuX8QhT4s8LZIyLiXt/0zNAHRWl5Be20dzbyB4pBlSKzde/4+dJ/6+h/6CapXsE/h+7W8sB5tpK2ZrYHoe7L6VZ1iUTvo8qfda5BH/fJrSn8QF2+/wCQFe/9cJP/AEE0UX3/ACAr3/rhJ/I0VImOh/5B9v8ARf5VV0n/AJCurf8AXSP/ANAq1F/yD7f6L/Kqulf8hTVv+ukf/oFVH4WM1mAZSCMg1XtbKOzaTyi212ztPQVZorMAoopyDJzQBIOgpaKKACiiigAooooAKKKKACiiigAooooAKKKKACiiigAooooAKKKKACiiigAooooAKKKKAA9K5bWNDu7bUjrOh4F1/wAt7cnCzgfybrg+9dTRigCG3kklt43liMTsoLIeqn0p0rMsTMi7nAJC5xk+lPxS4oA53w3pNzb3V7qmoqBfXjAFQc7EUnaufUA10VGKKACiiigAooooAKKKKACiiigAooooAKKKKACiiigAooooAKKKKACiiigAooooAKKKKAA8ioD1NT1E4Ib60ANrnPEWh3eo6hpl7ZSBJbSVmOT2ZSuR7iujooA85vdEl/tOysNQtpdS8uRRHJLuZSjH96WIxjGB1rqtVhigfSYYl2xx3Kqg9Btb/CtzGaxtaAFzpn/X2v8A6C1a0/iAtX3/ACBL7/rhJ/6CaKL/AP5At9/1wk/9BNFQhMWE/wDEug/3V/lVbSSP7V1b/rpH/wCgVagGdOg/3V/lVbSl/wCJpqv/AF0j/wDQKpfCxmtRmlC81IE4rMBiruqQDFAGKWgAooooAKKKKACiiigAooooAKKKDQAUV5pYeO/E2tXd+mk6Ek0NrOYSzOAcjPqR6Vs+F/HB1a/vdL1a0Om6jZrulSRxt25xnPT9aAOyoqvHe2srbYriJ2xnCuDx60R31pNKYorqGSQdVVwSPwoAsUVBNe2tsQJ7mGIkZAkcLn86k81PL8zeuzG7dkYx659KAH0VXgvrW6YrBcwykdRG4bH5VOTgZ7UALRVaK/tJ5TFDdQSSDqqSBiPwpZL21hD+ZcxJ5ZAfc4G3PTPpQBYoqOKeKeMSQypIh6MjAj865Tx14sbQPDFzfaZcW0l3E4XYxDY9cjNAHX0ViTatcJ4R/tRQn2j7Ks2MZGSoP9aoeDfFB1rwxY3+pXFrFc3AJ2BwueccA0AdVRUbzRxRmSV1RB1ZjgD8ajS7huIGktpoplUdY3DD9KALFFcp4L8SXevx6u14IwbO9aBNgx8oAPP51V8c+MpdA0i3udLmtJ5Xu44WBYNhWPPQ+1AHa0Vmz6tFY6Kt/eOiDyg5DMFycZwM1X8N+JbLxLo8OoWrqokXcYy4LJ9cUAbVFVor+0nk8uG6hkfuqSBj+lWM0ALRVb7faG4+zi6h87+5vG78qkluIYI/MmljjT+87AD86AJaKjininjEkUqSIejIwIP41Et/aPceQt1C02ceWHBb8utAFmikz71At9atN5K3UJl6bBIN35UAWKKiFxCZjCJU80DJTPOPXFZfiXWDpPh7VLu2kiN1a2zzKjHOCASMj8KANmisHw7ryajotjPeXNul3PEGaPcFOT6CoNZ8aado2u2GlTMrTXbFd3mKBHgZ+agDpaK5uTxHcW2qXq3MUCafBCJEuDOgL5BOMZrA1b4j7/h9L4i0dYhKkmwxSkNjDbex79aAPQ6Kpx38S2ENzczRxB0UksQq5I96sRTxTxiSGVJEPRkYEUASUVXjvrWaUxRXMLyL1RZASPwqxQAUUUUAFFFFABRRRQAUUUUAFIRmlooAhZSKSp8CmFB24oAjrG1z/j40z/r6X/0Fq3NmKxtfGJ9M/wCvtf8A0Fq1pfEgJr050S9/695P/QTRSXn/ACA73/r3k/8AQTRWaEya3A/s23/3F/lVbSh/xNdV/wCukf8A6BVqD/kGW/8AuL/Kq2lf8hXVf+ukf/oFWvhYzYAp1NFOrMAooooAKKKKACiiigAooooAKKKKACg0UhoA8R8C6v4jsLnxBHo2gx38RvSWkNxsweeMYNP1nQddXSfFHifW4Y7Se5t1jit433bF3A9R9TXd+BPC194b/tb7c8D/AGu686PyiTgc9cgc1p+MtGudf8KX2mWjIs86gKXOB1BoA8pudMTwj8KrTXdPuLxtQ1GCCKSQyFtiuhztHbFZLxCwgsb7w7pviQawjq8kk0MmyXjnPtk161N4LXUfh7Z+Gr+UrJBBGvmxHhZEGAR7ZrK0/QPHqtb2F3rNrHYW+ALiEZlkUcAEEYHH8qAOP8SWDnxhe3Xiq01e50yVA1nLZbnEQ9wOmOa1J7C+u/haIvD+sXGq263PmNtkKy+TnJizknOOMVu3/hXxXp+qXlxoGoW01vendJBfEkRN6rwfyptv8Ob218Ki0g1VotVFyb0TRjanmZztx/dz7UAcx4Us9Dg8U6cNOvNU0e9VQ09nfxMouDxkDJFejePJ44vCV0ZdQlsEJVWliGXIJ+6vI5OcVzln4L8R6v4m0/VvE1zZqNPbfElpklz7kgGun8ZeGT4n0B7CObyZldZIn6gMpyM/lQB5AYLTR9S0K+0e01uzklvYonmut6rKrMMgg+tdBH4ah8U/FPxLb6hc3K2kflHyIZSgZvLUgmrt34L8cawNOOp6nY4sZ45ViTO2Tackk7cg8dvWum0Pw1f6f411nWrh4mhv/LKBDypCAHP4igDzVdSvvCmm+MdK0+6lMNpOkVv5jkmMM6r1+hpfGHgPTtI+G8erQ3F42oOImmkeYkSE8nIrs/8AhXtxfan4obUJIvsmrMGh8tiWUgggkfgKwtU8CePNU8OjQbjVdPezgwImJO51H3d3y8H6UAdzP/yTdcnP+gR9f90V5Vongewu/ha2uSXN59thhaaIichUwTwBXsculTv4S/soMnn/AGVYdx+7uAAz9MisLSPCd/Y/DVvDsrw/bGheIsrHbz07UAcVDf3fjB/Cfhy5up4rWaxE100bnfNhFOM/iav3Omj4f+O9GttGuJxZakDFPbzSFlzz8w9DxWmfh3qUOhaLLZ3scGt6VFsjcHMb8DKkkdOKs6b4N1vUfEcGueKbq3kntEK20FufkU/3icAnn1oA8+l1a707w3rNpaTPC9/rrQNKhwVXCZ59wTV7x74D03wvommXNlNdmRr2JJN0xZZCT1xXUx/DWe60LV7K8uIknub83dtNFz5ZwuM/itZ2qeCfHmv2NpaalqOnmK0ljZdpOZdvc/LweKAOx8T6RZa34HVb2IuscCSphsYbb/8AXryS1C+Hvhlor6Vvt7rWZBbzzKxBChgTj+Ve8mxWXRhYS8/uRGcH2x/SvObH4catP4Zfw/qt1bLbWrBtPnhyXjbdnJBFAGf4r8HWvgTR4Nf0W8vI76CePzS0xIlBPIIr06eW8vfC/nWjKl5NbK6E9AxAP9a4Z/Bni3xAtpp/iTUrY6XbSrIwt/vz46buBj8PWu/v9LjvdGk01JHgjaMRq0ZwyAdMH8KAPCINNsLOGNNafW9K18TDOpuGMLPnPXjIP171r+L9Ul1Dxzb6HqR1C/021tEd005WJmdl+8dvUZ/nW1d+CPGF/p0Xh69vrGbR43H+ktkz7AcgYx1461qar4DvrTUbHWPDN6sGo20C2zrOcrKgGME89hQBwNtrOqeGbTxB/Zdlq1rpf2TzLc3sbjy5MqMDPH96qEkATSILzStN8St4hysn2topCsjbhu/DFeqReFde1vTNQt/FOoxul2mwW9uPkiPqDgE9P1qjpvhzx7YxW+kprNrHp0L4W6xum2DoNpGOen40AdXLJqeo+CWkijNtqc1luCNwY5CvQ+nNeLwaZp1tBAurSazomvGbB1CTc0JbJ/i4BBFe7X+ntqGjXGntcOjTQmIzJwwJGN31rzq98FeMtV0uPw/qGoWMumBgDc4zPsHQYI6+/tQBb015JPjBKDL5h/suP5x0b5jzWB4id/8AhLPHCs7lRpJwN3H3Grptc8F61b65Z634XuoEuYrcW0kVyTtdRnBzgnvWZbfD7xLJda/d6ne2k8+pWBgQrkbHKkY6dBnGaAMeDwDYj4bprv229OqR24mjm84gIcjgD0xWVJpll4h1Hwbf30LtNqIf7S2cFmCnBH5V1cXgfxtFoEXh0ataHTSu2aQk+YF7qo24x9a09e+H94tnoP8Awjk8cc+ksdnnn5WBHOevqaAObuNDsr/xp4j024Rmt4LGPy1z0KqwFYdvpFpYfAm4uoUKyT3DCTng4lIH8hXpWleENSj8Uajq2oyQbLyzjhdY2Od4UhiPbJrC/wCFf+JT4JvvDRnsTB55ktW3EHBbcd3HvQBz+v6p/bnjFtLv7XVbnTrG1UC3sFZstnGWx26U7Q08RC38Q6VodnqttYTQZtWvQ6GM4O5QW6E8V2uqeCdXt9Xh1zw5eQwah5IiuIZiRFLj1IGalj8LeItV0jUYdd1cpc3JBiW1I2xFc4wcAnqOvpQB5/pFno1tqGmKs+saFrQkUyy3qsY5zjkZJGQTzXvUedi5YMcDJHevLZ/A/ivxC9jZeIbyzNhZvvE0BJmkxwAeBjj0NepRqERVHQDFADqKKKACiiigAooooAKKKKACiiigAooooADWHr/+v0z/AK+1/wDQWrcNYev/AOv0z/r7X/0Fqun8SAnvB/xIr3/r3k/9BNFLd/8AICvf+veT/wBBNFShMliGNNtx6Kv8qq6R/wAhXVv+ukf/AKBVtDnT4D6qv8qqaR/yFtW/66R/+gCrXwMZsYpaKKzAKKKKACiiigAooooAKKKKACiiigAooooAKKKKADFGKKKADFGKKKACiiigAxRiiigBMCjApaKAExRilooATAowKWigBMCjApaKAEwKMClooATApaKKADFGKKKACiiigAooooAMCjFFFABgUYoooAKKKKADFGKKKADFFFFABRRRQAUUUUAFFFFABRRRQAUUUUAFFFFAAaw9f/1+mf8AX2v/AKC1bhrD1/8A12mf9fa/+gtWlP4kBYu/+QFe/wDXvJ/6CaKLv/kBXv8A17yf+gmioQiSL/kGW3+6v8qraR/yFdW/66J/6BVmL/kGW30X+VVtI/5Curf9dE/9Aql8LGbNFFFQAUUUUAFFFFABRRRQAUUUUAFFFFABRRRQAUUUUAFFFFABRRRQAUUUUAFFFFABRRRQAUUUUAFFFFABRRRQAUUUUAFFFFABRRRQAUUUUAFFFFABRRRQAUUUUAFFFFABRRRQAUUUUAFFFFABRRRQAUUUUAFFFFABRRRQAUUUUABrD1//AF2mf9fa/wDoLVuGsPX/APXaZ/19r/6C1aU/iQFi7/5AV7/17yf+gmii7/5AV7/17yf+gmis0Iki/wCQZbfRf5VW0j/kK6t/10T/ANAqzF/yDLb/AHV/lVbSP+Qrq3/XRP8A0CrXwsZs0UUVABRRRQAUUUUAFFFFABRRRQAUUUUAFFFFABRRRQAUUUUAFFFFABRRRQAUUUUAFFFFABRRRQAUUUUAFFFFABRRRQAUUUUAFFFFABRRRQAUUUUAFFFFABRRRQAUUUUAFFFFABRRRQAUUUUAFFFFABRRRQAUUUUAFFFFABRRRQAGsPX/APXaZ/19r/6C1bhrD1//AF2mf9fa/wDoLVpT+JAT3n/ICvf+veT/ANBNFF5/yArz/r3k/wDQTRUIRLF/yDLb/dX+VVtI/wCQrq3/AF0T/wBAqzF/yDLb/dX+VVtI/wCQrq3/AF0T/wBAql8LGbNFFFQAUUUUAFFFFABRRRQAUUUUAFFFFABRRRQAUUUUAFFFFABRRRQAUUUUAFFFFABRRRQAUUUUAFFFFABRRRQAUUUUAFFFFABRRRQAUUUUAFFFFABRRRQAUUUUAFFFFABRRRQAUUUUAFFFFABRRRQAUUUUAFFFFABRRRQAUUUUABrD1/8A12mf9fa/+gtW4aw9f/12mf8AX2v/AKC1aU/iQE95/wAgK8/695P/AEE0UXn/ACAr3/r3k/8AQTRUIRLF/wAgy2/3V/lVbSP+Qrq3/XRP/QKsxf8AIMtv91f5VW0j/kK6t/10T/0CqXwsZs0UUVABRRRQAUUUUAFFFFABRRRQAUUUUAFFFFABRRRQAUUUUAFFFFABRRRQAUUUUAFFFFABRRRQAUUUUAFFFFABRRRQAUUUUAFFFFABRRRQAUUUUAFFFFABRRRQAUUUUAFFFFABRRRQAUUUUAFFFFABRRRQAUUUUAFFFFABRRRQAGsPX/8AXaZ/19r/AOgtW4aw9f8A9dpn/X2v/oLVpT+JAT3v/ICvf+veT/0E0UXv/IBvf+veT/0E0VCESxf8gy2/3V/lVbSP+Qrq3/XRP/QKsxf8gy2/3V/lVbSP+Qrq3/XRP/QKpfCxmzRRRUAFFFFABRRRQAUUUUAFFFFABRRRQAUUUUAFFFFABRRRQAUUUUAFFFFABRRRQAUUUUAFFFFABRRRQAUUUUAFFFFABRRRQAUUUUAFFFFABRRRQAUUUUAFFFFABRRRQAUUUUAFFFFABRRRQAUUUUAFFFFABRRRQAUUUUAFFFFAAaw9f/12mf8AX2v/AKC1bhrD1/8A12mf9fS/+gtWlP4kBPef8gK8/wCveT/0E0UXn/ICvP8Ar3k/9BNFQhEsX/IMtv8AdX+VVtI/5Curf9dE/wDQKsxf8gy2+i/yqtpH/IV1b/ron/oFUvhYzZoooqACiiigAooooAKKKKACiiigAooooAKKKKACiiigAooooAKKKKACiiigAooooAKKKKACiiigAooooAKKKKACiiigAooooAKKKKACiiigAooooAKKKKACiiigAooooAKKKKACiiigAooooAKKKKACiiigAooooAKKKKACiiigANYev/6/TP8Ar6X/ANBatw1h6/8A67TP+vpf/QWrSn8SAnvP+QFe/wDXvJ/6CaKLz/kBXv8A17yf+gmioQiWL/kGW30X+VVtI/5Curf9dI//AECrMX/IMtvov8qraR/yFdW/66R/+gVS+FjNmiiioAKKKKACiiigAooooAKKKKACiiigAooooAKKKKACiiigAooooAKKKKACiiigAooooAKKKKACiiigAooooAKKKKACiiigAooooAKKKKACiiigAooooAKKKKACiiigAooooAKKKKACiiigAooooAKKKCcUABOBk1AbjJxGpb3pDunYjP7sfrUyqEGAMUARbrj+4o+poW4IOJEK+/apWdVIBIBPQZ60uAeCBQAAhhkHIparspgO9T8vdanByAR0oAU1h6//AK/TP+vpf/QWrcNYmv8A+v0z/r7X/wBBarp/EgJr3/kBXv8A17yf+gmii9/5AV7/ANe8n/oJoqUIli/5Blt9F/lVbSP+Qrq3/XRP/QKsxf8AIMtvov8AKq2kf8hXVv8ArpH/AOgVS+FjNmqGrapDpFi1zNkgHaAB1Jq/Wfq81nb2bTX2wwpzhh1PYVAGdp/imO7vUtZ7aW2kk5j3g4cVp3eoi1ubaAKHaYkdcbQBnNc1pAbWtaXVrnZFFGpW2iBGcev6Vq2Sf2jrN3dN9yIeQn17n9aAB/EiqJJltpWtY2KvKB0x1PuK24pFliWRDlWGQfauN1C21DTNFv7Xfbm2k37GLYfnPGK6jSVZdMtlbO4RqDn6UAXaKKKACiiigAooooAKKKKACiiigAooooAKKKKACiiigAooooAKKKKACiiigAooooAKKKKACiiigAooooAKKKKACiiigAooooAKKKKACiiigAooooAKKKKACiiigAooooAKKKKACorhtsJx1OBUtQXP3U9NwoAlVQihR0FL1paz7uyvJ5t8OoyW64+6sat/MUAVtUJGt6V1wXf/ANBNbFcpqFhfrrelKdYlJZ3wfJTj5D7VrJp2oI6k6xKwzyDCnP6UAarDcCPWorcn50P8JwKlGcAE5PrUMX/HxJ6UATmsTX/9dpn/AF9r/wCgtW2axNf/ANdpn/X2v/oLVdP4kBNe/wDICvf+veT/ANBNFF7/AMgK9/695P8A0E0VKAli/wCQZbfRf5VW0j/kK6t/10j/APQKtR/8gy2+i/yqrpH/ACFdW/66J/6BVL4WBs1Vv9PttStzBdx+ZGSDjOOatUVAGJH4Y0u3kWWC2VJUHytk8VoadZLp9mlurbscknuat0UAUJdHsZ7wXUsCvKvILdjV/FFFABRRRQAUUUUAFFFFABRRRQAUUUUAFFFFABRRRQAUUUUAFFFFABRRRQAUUUUAFFFFABRRRQAUUUUAFFFFABRRRQAUUUUAFFFFABRRRQAUUUUAFFFFABRRRQAUUUUAFFFFABRRRQAVHOu+IgdetSUUAMicSIDT6gKtE26MZU9QKkWRX6EZ9KAKN5YyXGp2NyrAJbsxYd+QRWhRxTWkROpoAV2CIWPao7dSFLnq3NICZmHBCeh9anHFAAaxNf8A9dpf/X2v/oLVtmsTX/8AXaX/ANfa/wDoLVdP4kBNd/8AIAvP+uEn/oJoou/+QBef9cJP/QTRUoCWP/kF2/0X+VVdJ/5C2rf9dE/9AFWo/wDkF2/0X+VVtJGNX1Yf9NE/9AFVH4WBsUtJRmoAWikzRmgBaKTNGaAFopM0ZoAWikzRmgBaKTNGaAFopM0ZoAWikzRmgBaKTNGaAFopM0ZoAWikzRmgBaKTNGaAFopM0ZoAWikzRmgBaKTNGaAFopM0ZoAWikzRmgBaKTNGaAFopM0ZoAWikzRmgBaKTNGaAFopM0ZoAWikzRmgBaKTNGaAFopM0ZoAWikzRmgBaKTNGaAFopM0ZoAWikzRmgBajaFGOSOfUVJRQBCLaP8A2v8Avo05YI1OQv5kmpKKACiikzQAprE8Qf67Sv8Ar8X/ANBatqsTXyDc6Uo+99rU49trVdP4wLF4P+Kfvf8ArhJ/6CaKL7jQr0f9MJP/AEE0VKAW2bdYwKTwEU/pVOcXNjfNfW6mVJMCaLHJ/wBofl0q5af8ekP+4P5VLj0q4uwFA+KLVThra9H/AGwaj/hKbP8A5973/vwavFVPJUH8KTan91fyqrU+wFL/AISqz/5973/vwaT/AISqz/5973/vwavbU/ur+VG1P7q/lRan2Ao/8JVZ/wDPte/9+DS/8JVZ/wDPte/9+DV3an91fyo2p/dX8qLU+wFH/hKrP/n2vf8AvwaP+Eqs/wDn3vf+/Bq9tT+6v5UbU/ur+VFqfYCj/wAJVZ/8+97/AN+DR/wlVn/z73v/AH4NXtqf3V/Kjav91fyotT7AUf8AhKrP/n3vf+/Bo/4Sqz/5973/AL8Gr21f7q/lRtX+6v5UWp9gKP8AwlVn/wA+97/34NH/AAlVn/z73v8A34NXtq/3V/Kjav8AdX8qLU+wFH/hKrP/AJ973/vwaP8AhKrP/n3vf+/Bq9tX+6v5UbV/ur+VFqfYCj/wlVn/AM+97/34NH/CVWf/AD73v/fg1e2r/dX8qNq/3V/Ki1PsBR/4Sqz/AOfe9/78Gj/hKrP/AJ973/vwavbV/ur+VG1f7q/lRan2Ao/8JVZ/8+97/wB+DR/wlVn/AM+97/34NXtq/wB1fyo2r/dX8qLU+wFH/hKrP/n3vf8AvwaP+Eqs/wDn3vf+/Bq9tX+6v5UbV/ur+VFqfYCj/wAJVZ/8+97/AN+DR/wlVn/z73v/AH4NXtq/3V/Kjav91fyotT7AUf8AhKrP/n3vf+/Bo/4Sqz/5973/AL8Gr21f7q/lRtX+6v5UWp9gKP8AwlVn/wA+97/34NH/AAlVn/z73v8A34NXtq/3V/Kjav8AdX8qLU+wFH/hKrP/AJ973/vwaP8AhKrP/n3vf+/Bq9tX+6v5UbV/ur+VFqfYCj/wlVn/AM+97/34NH/CVWf/AD73v/fg1e2r/dX8qNq/3V/Ki1PsBR/4Sqz/AOfe9/78Gj/hKrP/AJ973/vwavbV/ur+VG1f7q/lRan2Ao/8JVZ/8+97/wB+DR/wlVn/AM+97/34NXtq/wB1fyo2r/dX8qLU+wFH/hKrP/n3vf8AvwaP+Eqs/wDn3vf+/Bq9tX+6v5UbV/ur+VFqfYCj/wAJVZ/8+97/AN+DR/wlVn/z73v/AH4NXtq/3R+VG1f7q/lRan2Ao/8ACVWf/Pve/wDfg0f8JVZ/8+97/wB+DV7av91fyo2p/dH5UWp9gKP/AAlVn/z73v8A34NH/CVWf/Pve/8Afg1e2p/dX8qNqf3V/Ki1PsBR/wCEqs/+fe9/78Gj/hKrP/n3vf8AvwavbU/ur+VG1P7q/lRan2Ao/wDCVWf/AD73v/fg0f8ACVWf/Pve/wDfg1e2p/dX8qNqf3V/Ki1PsBR/4Sqz/wCfa9/78Gl/4Sqz/wCfe9/78Gru1P7q/lRtT+6v5UWp9gKX/CVWf/Pvef8Afg0f8JVZ/wDPvef9+DV3an91fyo2p/dX8qLU+wil/wAJVZ/8+95/34NH/CVWf/Pvef8Afg1d2p/dX8qNqf3V/Ki1PsMpf8JVZ/8APvef9+DR/wAJVZ/8+97/AN+DV3an91fyo2p/dX8qLU+wFL/hKrP/AJ973/vwaP8AhKbP/n3vf+/Bq7tT+6v5UbU/ur+VFqfYCl/wlNn/AM+97/34NH/CU2f/AD73v/fg1d2p/dX8qNqf3V/Ki1PsBS/4Smz/AOfe8/78Gj/hKbP/AJ97z/vwau7U/ur+VG1P7q/lRan2Apf8JRaH7ttek/8AXA1HBHNqF+t/cx+WqDEMZPI9z71pBVByFH5UtF4r4UBWv/l0m+A7wSf+gmil1Ef8Sm+/64P/AOgmisxD7T/j0h/3B/KpqhtP+PSH/cH8qnNAxKKKKLiDFGKKKLgGKMUUUXAMUYooouAYoxRRQAYoxRRQAYoxRRQAYoxRRQAYoxRRQAYoxRRQAYoxRRQAYoxRRQAYoxRRQAYoxRRQAYoxRRQAYoxRRQAYoxRRQAYoxRRQAYoxRRQAYoxRRQAYoxRRQAYoxRRRcAoxRRRcAxRiiii4BijFFFFwDFGKKKLgGKMUUUXAMUYooouAYoxRRRcAxRTWbaMnpTAZHPHA/nTAlxjtR+FRmEE5LPn2NHk4+67Z9zSuBJRUW9kIEnT+8KlouAUUUU7gVtRP/Epvv+veT/0E0Uaj/wAgq+/695P/AEE0UCH2n/HrD/1zH8qnqC0/49Yf+uY/lU9SUFN3KW2713em4Z/KnV4t4kv9Q0r4q3Gp2IZ0tIlaePJwY/4jj6CmI9maREC72Vd3TJ606uD8ZahDqWm+Gb21f91NqMZG0/7DcGtbW/Fv9m6jDpNhYyahqUiBhDGwXaPUk8djSA6aiud8PeK49au7jT7i1ksdSt8eZbyH9Qe9WfEWvp4fSzlmiLxT3CwswOAmQTk/l+tAGzRXMap40tNL8V6doUqfNeJvMobhAQcZ/EVYTxNE3iW80ryiIrOETTTk8KCCf6GmBv0VwTfEO5kjlvbTQrm40qJtr3SuvbgkDqava748tNJ0fTtTgja5hvW2oF4P5UAdfR0rjLLxzO+t2thqWjT2CXv/AB7SO4YP0646dR1qTV/Grwa2+j6Tpc2pXUQzP5bBRGPqeOlAHTQX9rc3E1vDOjywnEiDqp96s15d4G1mFte8U6rdRvboGMjxt1XkcVrj4hTxxx39zodzFo8rhUvN4I57kdQKAO6pAylwm4bjyFyM1xutePl03Wk0610+a8eW386IxkDdnGP0NZInlu/i1o1zPC0EkmnbnhLZ2n5+vbtQB6TRQOgHpRQAUUUUAFFFFABRRRQAUUUUAFFFFABRRRQAUUUUAFFFFABRRRQAUUUUAFFFFABRRRQAUUUUAFFFFABRRRQAUUUUAFFFFABRRRQAUUUUAFFFNkOENADMeY2T0HAFSCkUYQVWu9TstPZFuZSrP0AUsfqcUAW6Kp3WqWVnEks03yPypUFsj14zRPqlnbWiXUkv7p+VKqWJ+gHNAFsgEYPSmJlH2E8dqILiK6hWaBw8b8giiXhQw6g0ASUUUUAVtR/5BV9/17yf+gmijUf+QVff9e0n/oJooAfaf8ekP/XMfyqeoLT/AI9If+uY/lU9IYGvObSGK4+MepwyqsiPZgMpGcgg16LVdbG1S8a7W3jFwwwZQPmI+tMR43q1rd+GfEOneHJMvYNqK3Vo/ZVw2VA7csfyrpbe6g8PfE6+n1eVIIbyAGC4lOE4JO3Jrv7iwtLqSOS4t45HiOUZlyVPtTbvTbK/VVu7WKdV6B1BxQBw1hdQa58VpNQ0wrNaW9t5bzxnKliMYz+FdB4605tS8IX8EaB5Qm6P6g1t2lja2MZjtbeOFCckIuM1OVDAggEHsaAPFrOzl8S+HdR8VSo/2qCVBbk9QiEMSPwzW54fguvEHg3xNqiri41RJUiB4JCg7f516PDZ21va/ZYYI0g5/dqvHNOt7aC0gENvEkcQ6IowBQBwPh/xboen+AUt7m6gingiaKS1YjeWyRgLXNXtrPa+C/CEc8bI32sEqwxjJH+NerSeH9IlnMz6bbNITksYxkmrU9ja3IjE9vHIIjlAy52n2oA47x9lte8MYP8Ay+rz6fMtZ+galZeHPGPiK11e4S1knlWWKSYhQ6hR0Jr0Oa0t7h43mhSRojuQsM7T6iobzSdP1B1e7soJ3XozoCR+NAHj+3+3YvG501hNvdXVkPDKGUnH4ZqWz0/wtd+GbU3fie/5jVXsTeEsrf3Qmfwr12102xsi5tbSGHzOHCIAG+oquPD2kCYTLp1sJA24N5Yzn1oA47SYoYPinDHDv8tdHOzf1xlP6VuXmm2b/EKx1CTU4kvEtvLSzI+dx83I59zXQi0gF19q8pPP27N4XBx6UjWds96l40EZuUXaspX5gPTNAE460GiigAooooAKKKKACiiigAooooAKKKKACiiigAooooAKKKKACiiigAooooAKKKKACiiigAooooAKKKKACiiigAooooAKKKKACiiigAooooAKZJ9w0+kIyMUAC8qD2rK1PRTf3AniuPIfYY3JXduUnJA9OlaUZwSh6ipKAMe50JXs4YLSYweShQEjdlSMH+dE2hILC1t7aXypLUYjcjdx3yPwrYooAqabYpp1ilqjFghYlj6k5P8AOp5uUx6mpKjzvkGPurQBJRRRQBV1L/kE33/XvJ/6CaKNS/5BV9/17yf+gmimgJLT/j0h/wCuY/lU5qC0/wCPSH/cH8qmNSMKKKKYgooooAKKKKACiiigAooooAKKKSgBaKKKACiiigAooooAKKKKACiiigAooooAKKKKACiiigAooooAKKKKACiiigAooooAKKKKACiiigAooooAKKKKACiiigAooooAKKKKACiiigAooooAKKKKACiiigBrpvHHBHQ00SY+V+D61JSEA9RmgADKehH50hdR1YUhiQ/w/lQIkHQUAIWL8JnB6mnqoAwKWigAooooAq6l/wAgq+/695P/AEE0Ual/yCb7/r3k/wDQTRTQiS0/49Yf+uY/lU5qC0/49YP+uY/lU5qShKKKlijzyaBCJEW61KsSjtUlFIYwxoeoqN4R1X8qbNf2sEgjmuYo3PRWYA1OCDyDkHpRcRUxRViVNw4qvVAFFFSRpk5pACRkjJqURL6U7HGKjkuYIm2yTRofRmApDHmNSMYqN4ccrQL22bhbmEn2cGpqAKdFTypxkVBTQgooqSNMnNAAsRNSrEo7U8DFLSGJtX0FG1fQUyeZLeF5ZHCRoMsxOMCsXRfEyaxeSQC0kgAQSRO5/wBYmcZx25zwaAN3YvoKTYPQU6igBuxfQUhiVu1PooArtCRyKiq7UE0eAWFMCGiiimIKKKKACiiigAooooAKKKKACiiigAooooAKKKKACiiigAooooAKKKKACiiigAooooAKKKKACiiigAooooAKKKKACiiigAooooAq6l/yCb7/AK95P/QTRRqX/IJvv+veT/0E0UASWn/HrB/1zH8qnNQWn/HrB/1zH8qnNIYlW4/uD6VUq3H9wfShiFPArEvfFui2LSJLqEDTIdvko4LlvQDua2ZlLRMoOCQQD6V5zqGnXtppEdg2irM1tIry3kaAsyhgcgnv657CkMtbbi7e8lvdDeWW7H+jM/LAc4zx8nau006GS3sIYpfvqgBGc49s1lw+L9GuImliu1ZE5lIB/d/WtuKRJo1kjYMjgEEd6AHkVVcYY1bqo/3zTQho61aUYUYqsOtWh0FAC9q4e20S21zxV4hN487CGaJYwJCAo8sdK7iuR0y+ttO13xVdXcqxQxzxFmPb92KQyh4m8L2Ol6M13atOkySxYPmHu4Fd1ASYIyepUfyrkPEmr2ereFblraQMY7iJHU8FTvXgiuug4gjB7KB+lADyMjFVWGGNW6qvy5poQ2raDCiqlW0+6KGA6qWsX50vR7u+EfmG3iaTZnGcCrtY3iznwjq3/XrJ/I0hnKSyazrGu2GjX97FJZ3lp9tlSOEKQmQNme/Uc+1X57bxFp/iW5v7LTLa6tjCIIt1yI9ig56Y/Wo7EgePNF5A/wCJEf8A0Na6XXL9NN0W5uGIGE2oCP4jwP1IoAh8N66de0trloPJkjmeGRA24BlODg9xWX4j8WahpeuWuk6ZpaX1xNCZSHn8sKAQPQ+orR8JaedP8PwK6kTS/vpQeztgkfnWNrWj+H9b8XJHqM0wuorUhYxIYxtyOQQQT/8AXoAtS+K7/S/D02pa5pa2kyyiOKCObzPMyQBzgY5NJpPi2+n1uHStX0n7DPcIZLcrLvDgYzk4GDyK4SS+ePwzq2lSObuwTUhb29xIT+7XKEc+2a17Kw/sDx1o6SX8mrNPbyKruRmEDA4A45z39KAPURTWHymlFDfdNAFQ9aSlPWkqhBRRRQAUUUUAFFFFABRRRQAUUUUAFFFFABRRRQAUUUUAFFFFABRRRQAUUUUAFFFFABRRRQAUUUUAFFFFABRRRQAUUUUAFFFFAFXUv+QTff8AXvJ/6CaKNS/5BN9/17yf+gmigCS0/wCPWH/rmP5VNUNp/wAesP8A1zH8qnPWkMSp4XyuD2qClBwc0CLZoIz1piSBhz1p9IDmZdIv7WW9SwjtzBd8/Ov3Sc5J9RzW/ZQNbWcULEFlUAkdM+1T4prMFFAwdtoqsTk5pWcsfam00IUdanjfdwetV6UMVORQwLfauZj8H27eJb3V7meSZZ5EkS3JGxGVQN316/nXRRyBhz1qWkM5jxD4Pt9aKTQytaXAZNzx9JFVshWrpEG1FXrgYzT6YzAUAK5wtVKkkfdUdNCCrET5GKr0qttOaGBcqG7tYr20ltZ1DRSqUdT3Bpyyg1J1pDOSXwHbLfLeHVNQM0cRihJdf3KkjhePapo/CB8xTda3qV1ECC0UzqVbByM8V0+KMUANVQqhQMAVmat4c0rXCjahZxzMn3WPUVq0UAZkXh/S4dJOmJZxizIwYscGoNK8J6LotybiwsI4pSMbxknH41tUUAFRyPhfenM2BVVmLGgQnWiiiqAKKKKACiiigAooooAKKKKACiiigAooooAKKKKACiiigAooooAKKKKACiiigAooooAKKKKACiiigAooooAKKKKACiiigAooooAq6j/yCr7/AK95P/QTRRqP/IKvv+veT/0E0UASWn/HpD/1zH8qnNQWf/HpD/uD+VTmkMSiiimIKcJGAwDTaKAH+a/rTSS3U0lFABRRRQAUUUUAA4p4kcdDTKKAH+a/979KaWY9TSUUAFFFFABRRRQAZxTxI4GAaZRQA/zn/vfpR5z/AN79KZRQA/zn/vfpR5r/AN79KZRQA/zX9f0oMjnvTKKAFyT3pKKKACiiigAooooAKKKKACiiigAooooAKKKKACiiigAooooAKKKKACiiigAooooAKKKKACiiigAooooAKKKKACiiigAooooAKKKKACiiigCrqX/IJvv+veT/ANBNFGpf8gm+/wCveT/0E0UASWX/AB5w/wC4P5VOahsv+POH/cH8qnpANpCGp2BS0AR/N60Yb1FSUUAM+aj5qdmjNADfmo+anZozQA35qPmp2aM0AN+aj5qdmjNADfmo+anZozQA35qPmp2aM0AN+aj5qdmjNADfmo+anZozQA35qPmp2aM0AN+aj5qdmjNADfmo+anZozQA35qPmp2aM0AN+aj5qdmjNADfmo+anZozQA35qPmp9HNADPmo+an80c0AM+aj5qfzRzQAz5qPmp/NHNADPmo+an80c0AM+aj5qfzRQAz5qPmp9FADPmo+an0UAM+aj5qfRQAz5qPmp9FADPmo+an0UAM+b2o+b2p9FADPm9qPm9qfRQAz5vaj5van0UAR/N7UfNUlFADPm9qOafRgelADaKXFGBTAq6l/yCb7/r3k/wDQTRSal/yCb7/r3k/9BNFAGZbeKdEW2iU6paghAP8AWCpf+Eq0P/oK23/fxaKKQw/4SzQx/wAxS2/7+Ck/4SzQ/wDoKW3/AH8FFFAg/wCEs0P/AKClt/38FH/CV6H/ANBS2/7+CiigA/4SvQ/+gpbf9/BR/wAJXof/AEFLb/v4KKKYB/wleh/9BS2/7+Cj/hK9D/6Clt/38FFFIA/4SvQ/+gpbf9/BR/wleh/9BS2/7+CiigA/4SvQ/wDoKW3/AH8FH/CV6H/0FLb/AL+CiigA/wCEr0P/AKClt/38FH/CV6H/ANBS2/7+CiigA/4SvQ/+gpbf9/BR/wAJXof/AEFLb/v4KKKAD/hK9D/6Clt/38FH/CV6H/0FLb/v4KKKAD/hK9D/AOgpbf8AfwUf8JXof/QUtv8Av4KKKAD/AISvQ/8AoKW3/fwUf8JXof8A0FLb/v4KKKAD/hK9D/6Clt/38FH/AAleh/8AQUtv+/goooAP+Er0L/oKW3/fwUf8JZoX/QUtv+/goooAP+Es0L/oKW3/AH8FH/CWaF/0FLb/AL+CiigA/wCEs0L/AKClt/38FH/CWaF/0FLb/v4KKKAD/hLNC/6Clt/38FH/AAlmhf8AQUtv+/goooAP+Es0L/oKW3/fwUf8JZoX/QUtv+/goooAP+Es0L/oKW3/AH8FH/CWaF/0FLb/AL+CiigA/wCEs0L/AKClt/38FH/CWaF/0FLb/v4KKKAD/hLNC/6Clt/38FH/AAlmhf8AQUtv+/goooAP+Es0L/oKW3/fwUf8JZoX/QUtv+/goooAP+Es0P8A6Clt/wB/BR/wlmh/9BS2/wC/goooAP8AhLND/wCgpbf9/BR/wlmh/wDQUtv+/goooAP+Es0P/oKW3/fwUf8ACWaH/wBBS2/7+CiigA/4SzQ/+gpbf9/BR/wlmh/9BS2/7+CiigA/4SzQ/wDoKW3/AH8FH/CWaH/0FLb/AL+CiigA/wCEs0P/AKClt/38FH/CWaH/ANBS2/7+CiigA/4SzQ/+gpbf9/BR/wAJZof/AEFLb/v4KKKAD/hLND/6Clt/38FL/wAJZof/AEE7f/vsUUUAH/CWaH/0FLf/AL+Cj/hLNC/6Clt/38FFFAB/wlmhf9BS2/7+Cj/hLNC/6Clt/wB/BRRQAf8ACWaF/wBBS2/7+Cj/AISvQ/8AoKW3/fwUUUAH/CV6H/0FLb/v4KP+Es0L/oKW3/fwUUUAQX/ifRJNMvETU7YsYHAHmDng0UUUCP/Z;" vertex="1" parent="1">
          <mxGeometry x="360.88" y="140" width="319.75" height="570" as="geometry" />
        </mxCell>
        <mxCell id="5G4gTjTOer8aTmhEWOPv-7" value="5" style="rounded=0;whiteSpace=wrap;html=1;fillColor=#FFFFFF;opacity=60;fontSize=22;fontStyle=1" parent="1" vertex="1">
          <mxGeometry x="440" y="270" width="80" height="110" as="geometry" />
        </mxCell>
        <mxCell id="5G4gTjTOer8aTmhEWOPv-2" value="0" style="rounded=0;whiteSpace=wrap;html=1;fillColor=#FFFFFF;opacity=60;fontSize=22;fontStyle=1" parent="1" vertex="1">
          <mxGeometry x="360" y="160" width="80" height="110" as="geometry" />
        </mxCell>
        <mxCell id="5G4gTjTOer8aTmhEWOPv-3" value="1" style="rounded=0;whiteSpace=wrap;html=1;fillColor=#FFFFFF;opacity=60;fontSize=22;fontStyle=1" parent="1" vertex="1">
          <mxGeometry x="440" y="160" width="80" height="110" as="geometry" />
        </mxCell>
        <mxCell id="5G4gTjTOer8aTmhEWOPv-4" value="2" style="rounded=0;whiteSpace=wrap;html=1;fillColor=#FFFFFF;opacity=60;fontSize=22;fontStyle=1" parent="1" vertex="1">
          <mxGeometry x="520" y="160" width="80" height="110" as="geometry" />
        </mxCell>
        <mxCell id="5G4gTjTOer8aTmhEWOPv-5" value="3" style="rounded=0;whiteSpace=wrap;html=1;fillColor=#FFFFFF;opacity=60;fontSize=22;fontStyle=1" parent="1" vertex="1">
          <mxGeometry x="600" y="160" width="80" height="110" as="geometry" />
        </mxCell>
        <mxCell id="5G4gTjTOer8aTmhEWOPv-6" value="4" style="rounded=0;whiteSpace=wrap;html=1;fillColor=#FFFFFF;opacity=60;fontSize=22;fontStyle=1" parent="1" vertex="1">
          <mxGeometry x="360" y="270" width="80" height="110" as="geometry" />
        </mxCell>
        <mxCell id="5G4gTjTOer8aTmhEWOPv-8" value="6" style="rounded=0;whiteSpace=wrap;html=1;fillColor=#FFFFFF;opacity=60;fontSize=22;fontStyle=1" parent="1" vertex="1">
          <mxGeometry x="520" y="270" width="80" height="110" as="geometry" />
        </mxCell>
        <mxCell id="5G4gTjTOer8aTmhEWOPv-9" value="7" style="rounded=0;whiteSpace=wrap;html=1;fillColor=#FFFFFF;opacity=60;fontSize=22;fontStyle=1" parent="1" vertex="1">
          <mxGeometry x="600" y="270" width="80" height="110" as="geometry" />
        </mxCell>
        <mxCell id="5G4gTjTOer8aTmhEWOPv-10" value="8" style="rounded=0;whiteSpace=wrap;html=1;fillColor=#FFFFFF;opacity=60;fontSize=22;fontStyle=1" parent="1" vertex="1">
          <mxGeometry x="360" y="380" width="80" height="110" as="geometry" />
        </mxCell>
        <mxCell id="5G4gTjTOer8aTmhEWOPv-11" value="9" style="rounded=0;whiteSpace=wrap;html=1;fillColor=#f8cecc;opacity=60;fontSize=22;fontStyle=1;strokeColor=#b85450;" parent="1" vertex="1">
          <mxGeometry x="440" y="380" width="80" height="110" as="geometry" />
        </mxCell>
        <mxCell id="5G4gTjTOer8aTmhEWOPv-12" value="10" style="rounded=0;whiteSpace=wrap;html=1;opacity=60;fontSize=22;fontStyle=1;" parent="1" vertex="1">
          <mxGeometry x="520" y="380" width="80" height="110" as="geometry" />
        </mxCell>
        <mxCell id="5G4gTjTOer8aTmhEWOPv-13" value="11" style="rounded=0;whiteSpace=wrap;html=1;fillColor=#FFFFFF;opacity=60;fontSize=22;fontStyle=1" parent="1" vertex="1">
          <mxGeometry x="600" y="380" width="80" height="110" as="geometry" />
        </mxCell>
        <mxCell id="5G4gTjTOer8aTmhEWOPv-14" value="12" style="rounded=0;whiteSpace=wrap;html=1;fillColor=#FFFFFF;opacity=60;fontSize=22;fontStyle=1" parent="1" vertex="1">
          <mxGeometry x="360" y="490" width="80" height="110" as="geometry" />
        </mxCell>
        <mxCell id="5G4gTjTOer8aTmhEWOPv-15" value="13" style="rounded=0;whiteSpace=wrap;html=1;fillColor=#d5e8d4;opacity=60;fontSize=22;fontStyle=1;strokeColor=#82b366;" parent="1" vertex="1">
          <mxGeometry x="440" y="490" width="80" height="110" as="geometry" />
        </mxCell>
        <mxCell id="5G4gTjTOer8aTmhEWOPv-16" value="14" style="rounded=0;whiteSpace=wrap;html=1;fillColor=#d5e8d4;opacity=60;fontSize=22;fontStyle=1;strokeColor=#82b366;" parent="1" vertex="1">
          <mxGeometry x="520" y="490" width="80" height="110" as="geometry" />
        </mxCell>
        <mxCell id="5G4gTjTOer8aTmhEWOPv-17" value="15" style="rounded=0;whiteSpace=wrap;html=1;fillColor=#FFFFFF;opacity=60;fontSize=22;fontStyle=1" parent="1" vertex="1">
          <mxGeometry x="600" y="490" width="80" height="110" as="geometry" />
        </mxCell>
        <mxCell id="5G4gTjTOer8aTmhEWOPv-18" value="16" style="rounded=0;whiteSpace=wrap;html=1;fillColor=#FFFFFF;opacity=60;fontSize=22;fontStyle=1" parent="1" vertex="1">
          <mxGeometry x="360.63" y="600" width="80" height="110" as="geometry" />
        </mxCell>
        <mxCell id="5G4gTjTOer8aTmhEWOPv-19" value="17" style="rounded=0;whiteSpace=wrap;html=1;fillColor=#FFFFFF;opacity=60;fontSize=22;fontStyle=1" parent="1" vertex="1">
          <mxGeometry x="440.63" y="600" width="80" height="110" as="geometry" />
        </mxCell>
        <mxCell id="5G4gTjTOer8aTmhEWOPv-20" value="18" style="rounded=0;whiteSpace=wrap;html=1;fillColor=#FFFFFF;opacity=60;fontSize=22;fontStyle=1" parent="1" vertex="1">
          <mxGeometry x="520.63" y="600" width="80" height="110" as="geometry" />
        </mxCell>
        <mxCell id="5G4gTjTOer8aTmhEWOPv-21" value="19" style="rounded=0;whiteSpace=wrap;html=1;fillColor=#FFFFFF;opacity=60;fontSize=22;fontStyle=1" parent="1" vertex="1">
          <mxGeometry x="600.63" y="600" width="80" height="110" as="geometry" />
        </mxCell>
      </root>
    </mxGraphModel>
  </diagram>
</mxfile>
